<?xml version="1.0" encoding="UTF-8"?>
<svg version="1.1" xmlns="http://www.w3.org/2000/svg" width="800" height="800">
<path d="M0 0 C2.21797115 1.61149466 4.44003869 3.21636906 6.671875 4.80859375 C7.32929687 5.39833984 7.32929687 5.39833984 8 6 C8 6.66 8 7.32 8 8 C8.58628174 8.26176025 9.17256348 8.52352051 9.77661133 8.79321289 C12.12431048 10.06747191 13.68581889 11.42738878 15.57421875 13.30859375 C16.56905273 14.2972644 16.56905273 14.2972644 17.58398438 15.3059082 C18.62522461 16.36104614 18.62522461 16.36104614 19.6875 17.4375 C20.76161133 18.52067505 20.76161133 18.52067505 21.85742188 19.62573242 C27.28660262 25.15643343 32.32028953 30.81374289 37 37 C37.67160156 37.87785156 38.34320312 38.75570312 39.03515625 39.66015625 C47.56044645 51.07648898 54.52948272 63.33907442 61 76 C61.45117188 76.8765625 61.90234375 77.753125 62.3671875 78.65625 C76.21762518 107.26238272 83.04713285 142.3602158 81 174 C80.93570801 175.01545898 80.87141602 176.03091797 80.80517578 177.07714844 C79.18373254 200.26809742 74.75244531 222.42243973 66 244 C65.55769043 245.10480713 65.55769043 245.10480713 65.10644531 246.23193359 C58.83600516 261.65500234 50.88122285 276.0266275 40.93359375 289.375 C39.02198021 291.81404678 39.02198021 291.81404678 38 294 C37.34 294 36.68 294 36 294 C35.690625 295.0209375 35.690625 295.0209375 35.375 296.0625 C33.57104973 299.91639375 31.0989655 303.07787764 28 306 C27.34 306 26.68 306 26 306 C25.79246094 306.53238281 25.58492187 307.06476563 25.37109375 307.61328125 C23.44525 310.96567593 20.79782959 313.49774614 18.0625 316.1875 C17.47839355 316.76483887 16.89428711 317.34217773 16.29248047 317.93701172 C11.12786028 322.98090418 5.73158151 327.60757305 0 332 C-0.55381348 332.43022461 -1.10762695 332.86044922 -1.67822266 333.30371094 C-10.97778607 340.49727934 -20.60297758 346.52676532 -31 352 C-32.15113281 352.61617187 -33.30226563 353.23234375 -34.48828125 353.8671875 C-84.40184551 379.77388175 -142.79243652 382.81230152 -196.0625 366.17211914 C-203.66563052 363.70011173 -210.83337104 360.52117608 -218 357 C-219.30329084 356.37350113 -220.60668047 355.74720775 -221.91015625 355.12109375 C-230.61988768 350.89363658 -238.8324601 346.19543088 -247 341 C-247.94488281 340.47019531 -248.88976562 339.94039062 -249.86328125 339.39453125 C-250.92095703 338.70423828 -250.92095703 338.70423828 -252 338 C-252 337.34 -252 336.68 -252 336 C-253.07314453 335.62875 -253.07314453 335.62875 -254.16796875 335.25 C-257.31409706 333.86136405 -259.63810963 332.15536054 -262.3125 330 C-263.19550781 329.29875 -264.07851563 328.5975 -264.98828125 327.875 C-265.65214844 327.25625 -266.31601562 326.6375 -267 326 C-267 325.34 -267 324.68 -267 324 C-267.57975586 323.74476563 -268.15951172 323.48953125 -268.75683594 323.2265625 C-271.23015312 321.87415223 -272.89602109 320.36267476 -274.890625 318.375 C-275.59960938 317.66859375 -276.30859375 316.9621875 -277.0390625 316.234375 C-277.76867187 315.49703125 -278.49828125 314.7596875 -279.25 314 C-279.99507812 313.26265625 -280.74015625 312.5253125 -281.5078125 311.765625 C-282.21164062 311.05921875 -282.91546875 310.3528125 -283.640625 309.625 C-284.60790527 308.65433594 -284.60790527 308.65433594 -285.59472656 307.6640625 C-287 306 -287 306 -287 304 C-287.60432861 303.73606445 -288.20865723 303.47212891 -288.83129883 303.20019531 C-291.11819137 301.93459093 -292.1536063 300.87490092 -293.69921875 298.796875 C-294.42310791 297.83152832 -294.42310791 297.83152832 -295.16162109 296.84667969 C-295.91693115 295.80882324 -295.91693115 295.80882324 -296.6875 294.75 C-297.21424316 294.03489258 -297.74098633 293.31978516 -298.28369141 292.58300781 C-305.86533782 282.19070558 -312.46219369 271.63719297 -318 260 C-318.65200992 258.70360303 -319.30578004 257.40809041 -319.9609375 256.11328125 C-345.10533459 205.85999339 -345.49210617 147.56345595 -328.30371094 94.86523438 C-327.03456008 91.16702014 -325.57385674 87.57780646 -324 84 C-323.47792969 82.80761719 -322.95585937 81.61523438 -322.41796875 80.38671875 C-313.22695346 59.86705885 -301.04287081 39.11353031 -284.59765625 23.5625 C-282.83575449 21.83936869 -281.27435449 20.01008004 -279.6875 18.125 C-271.09551489 8.24610963 -260.51929122 0.67177481 -250 -7 C-249.05511719 -7.69609375 -248.11023438 -8.3921875 -247.13671875 -9.109375 C-241.3515768 -13.27984415 -235.33197362 -16.72945616 -229 -20 C-227.95199219 -20.55558594 -226.90398437 -21.11117187 -225.82421875 -21.68359375 C-206.3010909 -31.79418706 -185.67455456 -38.48341411 -164 -42 C-162.25976562 -42.29197266 -162.25976562 -42.29197266 -160.484375 -42.58984375 C-103.73445645 -51.4651164 -44.97922213 -35.49141746 0 0 Z " fill="#25B1DC" transform="translate(529,234)"/>
<path d="M0 0 C3.12597705 2.10821708 4.90048477 3.85072715 7 7 C8.29108205 15.52625472 5.94023863 24.02041692 3.98220825 32.26638794 C3.03347681 36.26558144 2.12591172 40.27422558 1.2109375 44.28125 C1.02292068 45.09944717 0.83490387 45.91764435 0.64118958 46.76063538 C-1.17101622 54.67085361 -2.82349943 62.60984659 -4.4375 70.5625 C-5.00596369 73.3542782 -5.57518378 76.14590191 -6.14453125 78.9375 C-6.28988815 79.65095581 -6.43524506 80.36441162 -6.58500671 81.0994873 C-8.74809588 91.69491221 -10.98786034 102.27447779 -13.21246338 112.8571167 C-15.47418364 123.62256298 -17.69493292 134.39265883 -19.8125 145.1875 C-21.35675643 153.03574282 -23.07755809 160.79940929 -25.09765625 168.5390625 C-25.69727824 170.83891133 -26.26786944 173.14653295 -26.80859375 175.4609375 C-27.05738281 176.52570313 -27.30617188 177.59046875 -27.5625 178.6875 C-27.77003906 179.59886719 -27.97757813 180.51023437 -28.19140625 181.44921875 C-29.63224667 185.99447863 -31.74491296 189.69009561 -36 192 C-42.30696315 193.3514921 -46.93443849 189.27003737 -52 186 C-55.03414414 183.90414744 -57.99071086 181.71651862 -60.9375 179.5 C-62.58843469 178.27068965 -64.23947974 177.0415275 -65.890625 175.8125 C-66.72916016 175.18601562 -67.56769531 174.55953125 -68.43164062 173.9140625 C-72.6689786 170.75619846 -76.92944806 167.62984295 -81.1875 164.5 C-82.70217174 163.38589074 -84.21650926 162.27132693 -85.73046875 161.15625 C-86.43824463 160.63716064 -87.14602051 160.11807129 -87.87524414 159.58325195 C-89.34140119 158.49075184 -90.79301074 157.37854949 -92.23217773 156.25073242 C-92.94188721 155.69748291 -93.65159668 155.1442334 -94.3828125 154.57421875 C-95.01461426 154.07237061 -95.64641602 153.57052246 -96.29736328 153.0534668 C-98.05200405 151.72419503 -98.05200405 151.72419503 -100.6875 152.3125 C-103.40643837 154.29659016 -105.65009088 156.60574633 -108 159 C-111.18230421 162.23433498 -114.37113497 165.46210671 -117.5625 168.6875 C-118.41263672 169.55439453 -119.26277344 170.42128906 -120.13867188 171.31445312 C-120.96044922 172.14267578 -121.78222656 172.97089844 -122.62890625 173.82421875 C-123.37213135 174.57791748 -124.11535645 175.33161621 -124.88110352 176.1081543 C-128.42771384 179.27472687 -131.0252794 180.26396237 -135.75 180.125 C-136.54921875 180.10695313 -137.3484375 180.08890625 -138.171875 180.0703125 C-138.77515625 180.04710937 -139.3784375 180.02390625 -140 180 C-142.46439627 175.46777698 -143.97017117 170.96825899 -145.25 166 C-147.37310176 158.0554636 -149.74372229 150.21556967 -152.36914062 142.421875 C-153.9415661 137.68132802 -155.23771448 133.06559398 -156.11328125 128.14453125 C-157.54476561 118.95758372 -157.54476561 118.95758372 -162.69921875 111.64208984 C-167.22651917 109.35286795 -172.09378782 108.51473095 -177.04882812 107.61181641 C-182.64859146 106.45091246 -188.05416757 104.60242054 -193.5 102.875 C-195.63535054 102.22634478 -197.77076522 101.57790065 -199.90625 100.9296875 C-203.96053173 99.65950063 -208.00854157 98.3749465 -212.03125 97.0078125 C-212.89298828 96.71793457 -213.75472656 96.42805664 -214.64257812 96.12939453 C-217.39429492 94.81110105 -219.04912353 93.33508888 -221 91 C-221.08774404 87.5779824 -220.18311197 86.22320158 -218.01953125 83.5859375 C-214.17333297 80.29203936 -210.33264912 78.80655076 -205.625 77.0625 C-203.81501487 76.36741997 -202.00511966 75.67210577 -200.1953125 74.9765625 C-198.8635498 74.47237793 -198.8635498 74.47237793 -197.50488281 73.95800781 C-194.14592297 72.673353 -190.82626651 71.30455898 -187.5 69.9375 C-180.87480617 67.27875264 -174.1648404 64.90870745 -167.40234375 62.62280273 C-161.9160523 60.74813245 -156.58751168 58.60545414 -151.24731445 56.34985352 C-145.27350514 53.86664235 -139.2254898 51.57147736 -133.1875 49.25 C-130.43979843 48.19089612 -127.69253886 47.13064833 -124.9453125 46.0703125 C-124.26700882 45.80866302 -123.58870514 45.54701355 -122.8898468 45.2774353 C-116.77183296 42.91589572 -110.66620667 40.52325587 -104.5625 38.125 C-92.30942323 33.31903792 -80.027813 28.63687948 -67.57421875 24.37109375 C-64.60285208 23.23125801 -61.7694799 21.98846286 -58.88671875 20.6484375 C-52.74852092 17.8247726 -46.47410799 15.48899418 -40.125 13.1875 C-29.90838929 9.45827646 -29.90838929 9.45827646 -19.75 5.57421875 C-18.79593262 5.20208252 -17.84186523 4.82994629 -16.85888672 4.4465332 C-15.08180456 3.75001475 -13.30722245 3.04707166 -11.53564453 2.33666992 C-3.97710091 -0.6147102 -3.97710091 -0.6147102 0 0 Z " fill="#F4FAFD" transform="translate(496,316)"/>
<path d="M0 0 C1.2065625 0.0309375 1.2065625 0.0309375 2.4375 0.0625 C2.7675 0.7225 3.0975 1.3825 3.4375 2.0625 C2.15687515 3.7699998 0.81982443 5.43623596 -0.5625 7.0625 C-1.2225 7.0625 -1.8825 7.0625 -2.5625 7.0625 C-2.93375 7.93648438 -2.93375 7.93648438 -3.3125 8.828125 C-4.74775446 11.39364236 -6.33913013 12.89974798 -8.5625 14.8125 C-9.614375 15.73289062 -9.614375 15.73289062 -10.6875 16.671875 C-12.5625 18.0625 -12.5625 18.0625 -14.5625 18.0625 C-14.5625 18.7225 -14.5625 19.3825 -14.5625 20.0625 C-16.26153023 21.57990976 -18.02322723 23.027628 -19.8125 24.4375 C-23.26633535 27.16950203 -26.48214295 29.91849921 -29.5625 33.0625 C-30.88553717 34.24082998 -32.21881505 35.40777075 -33.5625 36.5625 C-35.78684145 38.4850256 -37.88331244 40.39175487 -39.9375 42.5 C-41.5625 44.0625 -41.5625 44.0625 -43.5625 44.0625 C-43.5625 44.7225 -43.5625 45.3825 -43.5625 46.0625 C-49.03869048 51.0625 -49.03869048 51.0625 -51.5625 51.0625 C-51.5625 51.7225 -51.5625 52.3825 -51.5625 53.0625 C-52.890625 54.40234375 -52.890625 54.40234375 -54.8125 56 C-57.49526779 58.26929462 -60.12905115 60.56920994 -62.6953125 62.96875 C-63.23124023 63.46898682 -63.76716797 63.96922363 -64.31933594 64.48461914 C-65.39094383 65.4881602 -66.4593583 66.4951231 -67.52441406 67.50561523 C-71.34180131 71.0625 -71.34180131 71.0625 -73.5625 71.0625 C-73.5625 71.7225 -73.5625 72.3825 -73.5625 73.0625 C-74.92578125 74.4375 -74.92578125 74.4375 -76.875 76.0625 C-81.46273628 79.9444307 -85.85264043 84.01888472 -90.2421875 88.12109375 C-92.5625 90.0625 -92.5625 90.0625 -94.5625 90.0625 C-94.44943303 92.02144361 -94.44943303 92.02144361 -93.5625 94.0625 C-91.9006769 94.74115027 -90.23304894 95.4056222 -88.5625 96.0625 C-86.85974731 97.1758383 -85.19480576 98.34822376 -83.5625 99.5625 C-82.61503906 100.26632812 -81.66757812 100.97015625 -80.69140625 101.6953125 C-77.28908519 104.26935315 -73.8879124 106.84451677 -70.5 109.4375 C-69.93990234 109.86611328 -69.37980469 110.29472656 -68.80273438 110.73632812 C-66.607676 112.42919602 -64.52495791 114.10004209 -62.5625 116.0625 C-65.61079935 119.21240933 -68.77857695 122.15831398 -72.0625 125.0625 C-76.95181786 129.41590164 -81.55491646 134.00876784 -86.09570312 138.72070312 C-92.10041129 144.85868471 -92.10041129 144.85868471 -96.921875 145.2578125 C-97.71078125 145.23460937 -98.4996875 145.21140625 -99.3125 145.1875 C-100.11171875 145.16945313 -100.9109375 145.15140625 -101.734375 145.1328125 C-102.33765625 145.10960937 -102.9409375 145.08640625 -103.5625 145.0625 C-106.02689627 140.53027698 -107.53267117 136.03075899 -108.8125 131.0625 C-110.93448044 123.12215952 -113.3550903 115.3083661 -115.89648438 107.49316406 C-117.440725 102.70736386 -118.90554921 97.91578546 -120.23828125 93.06640625 C-120.50390869 92.10130127 -120.76953613 91.13619629 -121.04321289 90.1418457 C-121.54595309 88.29282754 -122.03905745 86.4411552 -122.52124023 84.58666992 C-122.74626221 83.7588501 -122.97128418 82.93103027 -123.203125 82.078125 C-123.39422852 81.34883789 -123.58533203 80.61955078 -123.78222656 79.86816406 C-124.52809179 77.69272788 -124.52809179 77.69272788 -127.5625 76.0625 C-126.52996094 75.8046875 -125.49742187 75.546875 -124.43359375 75.28125 C-120.76687867 74.22862213 -117.84832858 72.62949651 -114.625 70.5625 C-114.07924316 70.21646729 -113.53348633 69.87043457 -112.97119141 69.51391602 C-111.79045319 68.76523194 -110.61180247 68.01324743 -109.43505859 67.25830078 C-106.80243587 65.57712919 -104.14872558 63.93050589 -101.49633789 62.28076172 C-97.03630259 59.5062633 -92.57814883 56.73045635 -88.171875 53.87109375 C-87.18703125 53.23300781 -86.2021875 52.59492188 -85.1875 51.9375 C-83.90746094 51.09832031 -83.90746094 51.09832031 -82.6015625 50.2421875 C-80.5625 49.0625 -80.5625 49.0625 -78.5625 49.0625 C-78.5625 48.4025 -78.5625 47.7425 -78.5625 47.0625 C-75.91511084 45.6018715 -74.66801666 45.0625 -71.5625 45.0625 C-71.5625 44.4025 -71.5625 43.7425 -71.5625 43.0625 C-69.5859375 41.6953125 -69.5859375 41.6953125 -66.9375 40.1875 C-63.9079863 38.43673288 -60.9339389 36.68750719 -58.0625 34.6875 C-55.5625 33.0625 -55.5625 33.0625 -53.5625 33.0625 C-53.5625 32.4025 -53.5625 31.7425 -53.5625 31.0625 C-52.44875 30.52625 -51.335 29.99 -50.1875 29.4375 C-45.91609423 27.31699785 -41.89401924 24.86974538 -37.859375 22.33203125 C-35.72149424 21.15037947 -33.94798471 20.5166175 -31.5625 20.0625 C-31.5625 19.4025 -31.5625 18.7425 -31.5625 18.0625 C-29.578125 16.6171875 -29.578125 16.6171875 -26.8125 14.9375 C-21.53512706 11.68516551 -16.40059513 8.26814747 -11.2890625 4.76171875 C-8.75791549 3.18428472 -6.34382458 2.10918222 -3.5625 1.0625 C-2.5625 0.0625 -2.5625 0.0625 0 0 Z " fill="#D2E2EE" transform="translate(459.5625,350.9375)"/>
<path d="M0 0 C0.66 0 1.32 0 2 0 C2 1.65 2 3.3 2 5 C1.01 5.495 1.01 5.495 0 6 C-1.02716657 8.19891964 -1.94187874 10.36436074 -2.8125 12.625 C-3.07458252 13.2943457 -3.33666504 13.96369141 -3.60668945 14.65332031 C-6.32613103 21.68916615 -8.73059602 28.80687148 -11 36 C-11.33386719 37.00160156 -11.66773438 38.00320313 -12.01171875 39.03515625 C-14.31538268 46.44649133 -13.97485361 52.41818801 -12.375 59.9375 C-12 62 -12 62 -13 65 C-13.66 64.34 -14.32 63.68 -15 63 C-17.19540183 67.57529121 -17.63879013 72.01834147 -18.125 77 C-18.21136719 77.77472656 -18.29773438 78.54945313 -18.38671875 79.34765625 C-19.59372933 91.13037857 -18.9240001 102.58053524 -17.5 114.3125 C-17.35691406 115.54162109 -17.21382812 116.77074219 -17.06640625 118.03710938 C-16.71755683 121.02558604 -16.3620103 124.01309413 -16 127 C-14.515 126.505 -14.515 126.505 -13 126 C-12.505 125.01 -12.505 125.01 -12 124 C-10.52993377 128.41019868 -11.56462677 131.69388031 -13 136 C-12.34 136.33 -11.68 136.66 -11 137 C-11.185625 137.825 -11.37125 138.65 -11.5625 139.5 C-12.23990388 144.91923107 -12.28158638 149.23781872 -9 153.75 C-8.01 154.86375 -8.01 154.86375 -7 156 C-6.375 158.0625 -6.375 158.0625 -6 160 C-5.505 160.99 -5.505 160.99 -5 162 C-3.1453394 165.7093212 -2.80756599 168.02521997 -4 172 C-4 172.66 -4 173.32 -4 174 C-3.01 174.33 -2.02 174.66 -1 175 C-0.855625 175.598125 -0.71125 176.19625 -0.5625 176.8125 C-0.14878702 179.19036586 -0.14878702 179.19036586 2 181 C4.13324818 183.13324818 4.53238345 184.1007774 5 187 C5.33 187.99 5.66 188.98 6 190 C6.99 190 7.98 190 9 190 C11.51580319 192.51580319 11.4301519 194.45487928 11.78125 197.890625 C12.06388812 200.61606404 12.52781883 203.30182191 13 206 C14.98 206 16.96 206 19 206 C20.31626692 209.61973402 21 212.09567131 21 216 C21.99 216 22.98 216 24 216 C24 215.34 24 214.68 24 214 C24.66 214 25.32 214 26 214 C26 214.66 26 215.32 26 216 C26.99 216.33 27.98 216.66 29 217 C29 220.96 29 224.92 29 229 C30.3921875 229.1546875 30.3921875 229.1546875 31.8125 229.3125 C35.0677766 230.01461848 36.08373387 230.37774108 38 233 C38.33 233.99 38.66 234.98 39 236 C39.66 235.67 40.32 235.34 41 235 C41.0825 235.61875 41.165 236.2375 41.25 236.875 C41.81258459 239.18437567 41.81258459 239.18437567 44.0625 240.25 C45.0215625 240.62125 45.0215625 240.62125 46 241 C46 241.99 46 242.98 46 244 C49.01674287 248.13724736 51.53427217 250.44815553 56 253 C56 253.66 56 254.32 56 255 C57.093125 254.835 58.18625 254.67 59.3125 254.5 C63.13056652 253.98229607 65.35109177 253.78369726 69 255 C69.59732819 257.76264289 70 260.16032769 70 263 C73.13349732 264.04449911 73.98968256 263.93423645 77 263 C76.67 264.65 76.34 266.3 76 268 C77.10067996 268.81721717 78.20569731 269.62859451 79.3125 270.4375 C80.23482422 271.11619141 80.23482422 271.11619141 81.17578125 271.80859375 C83.09677101 273.17336308 83.09677101 273.17336308 86 274 C86 274.66 86 275.32 86 276 C87.2375 276.37125 87.2375 276.37125 88.5 276.75 C91.20706437 277.7168087 93.48294572 278.73136552 96 280.0625 C99.32745296 281.79328647 102.277133 282.4551902 106 283 C106.33 283.66 106.66 284.32 107 285 C111.28259391 286.37914041 115.54863846 287.24189359 120 286.5 C124.52053741 285.7465771 128.58832494 286.94503423 133 288 C132.67 289.32 132.34 290.64 132 292 C132.66 292 133.32 292 134 292 C134.33 292.66 134.66 293.32 135 294 C137.02463255 294.65213292 137.02463255 294.65213292 139 295 C139.33 294.01 139.66 293.02 140 292 C142.5431516 293.01726064 145.08603409 294.03482332 147.625 295.0625 C149.3964928 295.76177347 151.19322023 296.39774008 153 297 C153.33 296.34 153.66 295.68 154 295 C154 295.66 154 296.32 154 297 C155.0828125 296.6596875 155.0828125 296.6596875 156.1875 296.3125 C159.77631468 295.91374281 161.12806404 296.92582403 164 299 C164.33 299.33 164.66 299.66 165 300 C169.23729931 300.39285644 173.49807044 300.47234361 177.75 300.625 C178.92433594 300.6765625 180.09867188 300.728125 181.30859375 300.78125 C193.19195272 301.22573207 204.52554604 300.33523185 216.15234375 297.9296875 C220.07302929 297.1703741 223.14076931 296.86936601 227 298 C227.33 297.01 227.66 296.02 228 295 C230.86941064 294.04352979 232.42601712 293.94675494 235.375 294.0625 C239.10638565 294.11684057 241.56950756 293.52466331 245 292 C247.8125 291.875 247.8125 291.875 250 292 C250.33 290.35 250.66 288.7 251 287 C254.01031744 286.06576355 254.86650268 285.95550089 258 287 C264.85702536 286.42670772 272.17395081 284.8072554 278 281 C278.33 280.01 278.66 279.02 279 278 C280.9375 277.375 280.9375 277.375 283 277 C283.66 276.67 284.32 276.34 285 276 C285 274.35 285 272.7 285 271 C286.65 270.67 288.3 270.34 290 270 C290 270.66 290 271.32 290 272 C290.93972656 271.67515625 290.93972656 271.67515625 291.8984375 271.34375 C293.12433594 270.92609375 293.12433594 270.92609375 294.375 270.5 C295.18710937 270.2215625 295.99921875 269.943125 296.8359375 269.65625 C299 269 299 269 301 269 C301 267.02 301 265.04 301 263 C301.7425 262.855625 302.485 262.71125 303.25 262.5625 C305.52027739 262.09812508 307.75759479 261.58136431 310 261 C309.67 258.69 309.34 256.38 309 254 C309.78375 254.185625 310.5675 254.37125 311.375 254.5625 C313.97089775 255.25962266 313.97089775 255.25962266 316 254 C316.33 253.01 316.66 252.02 317 251 C317.66 250.67 318.32 250.34 319 250 C319 248.68 319 247.36 319 246 C320.32 246.33 321.64 246.66 323 247 C323.391875 246.4225 323.78375 245.845 324.1875 245.25 C326.23631167 242.70664759 328.3261203 240.87171579 331 239 C331.99 239 332.98 239 334 239 C334 238.34 334 237.68 334 237 C334.66 236.34 335.32 235.68 336 235 C336.433125 233.9790625 336.433125 233.9790625 336.875 232.9375 C338 231 338 231 340.125 230.25 C340.74375 230.1675 341.3625 230.085 342 230 C341.67 228.02 341.34 226.04 341 224 C341.66 223.67 342.32 223.34 343 223 C343.33 223.66 343.66 224.32 344 225 C344.66 225 345.32 225 346 225 C346 225.66 346 226.32 346 227 C346.99 227 347.98 227 349 227 C349.41427246 226.1184021 349.41427246 226.1184021 349.83691406 225.21899414 C350.94414289 223.10656702 352.14118218 221.36936815 353.609375 219.49609375 C354.11355957 218.84406982 354.61774414 218.1920459 355.13720703 217.52026367 C355.66942871 216.83295166 356.20165039 216.14563965 356.75 215.4375 C361.49279389 209.19746021 365.4662817 203.00512923 369 196 C369.77329209 194.58761786 370.5510389 193.17767006 371.33203125 191.76953125 C378.17533783 179.3162972 384.85862428 166.18661414 387 152 C387.68359375 150.015625 387.68359375 150.015625 388.4375 148.25 C390.267 143.62244118 391.14854205 138.88837037 392 134 C392.33 134 392.66 134 393 134 C393.93858789 147.14023039 389.02206166 160.06208248 384 172 C383.75411133 172.60247559 383.50822266 173.20495117 383.25488281 173.82568359 C376.8960413 189.38769159 368.9847515 203.88770606 358.93359375 217.375 C357.02198021 219.81404678 357.02198021 219.81404678 356 222 C355.34 222 354.68 222 354 222 C353.79375 222.680625 353.5875 223.36125 353.375 224.0625 C351.57104973 227.91639375 349.0989655 231.07787764 346 234 C345.34 234 344.68 234 344 234 C343.79246094 234.53238281 343.58492187 235.06476563 343.37109375 235.61328125 C341.44525 238.96567593 338.79782959 241.49774614 336.0625 244.1875 C335.47839355 244.76483887 334.89428711 245.34217773 334.29248047 245.93701172 C329.12786028 250.98090418 323.73158151 255.60757305 318 260 C317.44618652 260.43022461 316.89237305 260.86044922 316.32177734 261.30371094 C307.02221393 268.49727934 297.39702242 274.52676532 287 280 C285.84886719 280.61617187 284.69773437 281.23234375 283.51171875 281.8671875 C233.59815449 307.77388175 175.20756348 310.81230152 121.9375 294.17211914 C114.33436948 291.70011173 107.16662896 288.52117608 100 285 C98.69670916 284.37350113 97.39331953 283.74720775 96.08984375 283.12109375 C87.38011232 278.89363658 79.1675399 274.19543088 71 269 C70.05511719 268.47019531 69.11023438 267.94039062 68.13671875 267.39453125 C67.07904297 266.70423828 67.07904297 266.70423828 66 266 C66 265.34 66 264.68 66 264 C64.92685547 263.62875 64.92685547 263.62875 63.83203125 263.25 C60.68590294 261.86136405 58.36189037 260.15536054 55.6875 258 C54.80449219 257.29875 53.92148437 256.5975 53.01171875 255.875 C52.01591797 254.946875 52.01591797 254.946875 51 254 C51 253.34 51 252.68 51 252 C50.42024414 251.74476563 49.84048828 251.48953125 49.24316406 251.2265625 C46.76984688 249.87415223 45.10397891 248.36267476 43.109375 246.375 C42.40039062 245.66859375 41.69140625 244.9621875 40.9609375 244.234375 C40.23132813 243.49703125 39.50171875 242.7596875 38.75 242 C38.00492188 241.26265625 37.25984375 240.5253125 36.4921875 239.765625 C35.78835937 239.05921875 35.08453125 238.3528125 34.359375 237.625 C33.71452148 236.97789062 33.06966797 236.33078125 32.40527344 235.6640625 C31 234 31 234 31 232 C30.39567139 231.73606445 29.79134277 231.47212891 29.16870117 231.20019531 C26.88180863 229.93459093 25.8463937 228.87490092 24.30078125 226.796875 C23.81818848 226.15331055 23.3355957 225.50974609 22.83837891 224.84667969 C22.33483887 224.15477539 21.83129883 223.46287109 21.3125 222.75 C20.78575684 222.03489258 20.25901367 221.31978516 19.71630859 220.58300781 C12.13466218 210.19070558 5.53780631 199.63719297 0 188 C-0.65200992 186.70360303 -1.30578004 185.40809041 -1.9609375 184.11328125 C-27.11453533 133.84160492 -27.48931608 75.53031678 -10.28759766 22.81689453 C-7.56588373 14.8790789 -3.89119524 7.42135174 0 0 Z M38 230 C38.99 230.495 38.99 230.495 40 231 C39.01 231.495 39.01 231.495 38 232 C38 231.34 38 230.68 38 230 Z " fill="#0C9EC6" transform="translate(211,306)"/>
<path d="M0 0 C0.66 0 1.32 0 2 0 C2 0.66 2 1.32 2 2 C2.721875 2.2578125 3.44375 2.515625 4.1875 2.78125 C7.1463554 4.06342067 9.41508642 5.57707649 12 7.5 C12.94746094 8.20382812 13.89492188 8.90765625 14.87109375 9.6328125 C18.27341481 12.20685315 21.6745876 14.78201677 25.0625 17.375 C25.62259766 17.80361328 26.18269531 18.23222656 26.75976562 18.67382812 C28.954824 20.36669602 31.03754209 22.03754209 33 24 C29.95170065 27.14990933 26.78392305 30.09581398 23.5 33 C18.61068214 37.35340164 14.00758354 41.94626784 9.46679688 46.65820312 C3.46208871 52.79618471 3.46208871 52.79618471 -1.359375 53.1953125 C-2.14828125 53.17210937 -2.9371875 53.14890625 -3.75 53.125 C-4.94882812 53.09792969 -4.94882812 53.09792969 -6.171875 53.0703125 C-6.77515625 53.04710937 -7.3784375 53.02390625 -8 53 C-8.33 52.34 -8.66 51.68 -9 51 C-7.02 51.33 -5.04 51.66 -3 52 C-3.02030273 50.09069702 -3.02030273 50.09069702 -3.04101562 48.14282227 C-3.03950384 42.97862434 -2.72160923 37.86334966 -2.34375 32.71484375 C-2.27716187 31.77314835 -2.21057373 30.83145294 -2.14196777 29.86122131 C-1.93094062 26.8864276 -1.71554476 23.91196944 -1.5 20.9375 C-1.35517854 18.90692172 -1.21064452 16.87632292 -1.06640625 14.84570312 C-0.71425883 9.89689205 -0.35819605 4.9483768 0 0 Z " fill="#B8D4E4" transform="translate(364,443)"/>
<path d="M0 0 C1.65902344 0.99966797 1.65902344 0.99966797 3.3515625 2.01953125 C4.25479248 2.5606958 4.25479248 2.5606958 5.17626953 3.11279297 C11.85300054 7.2042056 18.12157966 11.87181873 24.35107422 16.60595703 C26.51360162 18.23710942 28.71731096 19.80992564 30.9140625 21.39453125 C31.9246875 22.19890625 32.9353125 23.00328125 33.9765625 23.83203125 C33.9765625 24.49203125 33.9765625 25.15203125 33.9765625 25.83203125 C34.56284424 26.0937915 35.14912598 26.35555176 35.75317383 26.62524414 C38.10087298 27.89950316 39.66238139 29.25942003 41.55078125 31.140625 C42.21400391 31.79973877 42.87722656 32.45885254 43.56054688 33.13793945 C44.25470703 33.84136475 44.94886719 34.54479004 45.6640625 35.26953125 C46.73817383 36.3527063 46.73817383 36.3527063 47.83398438 37.45776367 C53.26316512 42.98846468 58.29685203 48.64577414 62.9765625 54.83203125 C63.64816406 55.70988281 64.31976562 56.58773437 65.01171875 57.4921875 C75.31033223 71.2832017 86.53396611 88.29605534 91.9765625 104.83203125 C91.4815625 106.31703125 91.4815625 106.31703125 90.9765625 107.83203125 C90.3165625 107.83203125 89.6565625 107.83203125 88.9765625 107.83203125 C88.3165625 106.51203125 87.6565625 105.19203125 86.9765625 103.83203125 C84.9965625 103.83203125 83.0165625 103.83203125 80.9765625 103.83203125 C81.8515625 97.08203125 81.8515625 97.08203125 82.9765625 94.83203125 C82.04077255 92.47221312 81.04308442 90.13571861 79.9765625 87.83203125 C79.1928125 87.87328125 78.4090625 87.91453125 77.6015625 87.95703125 C74.9765625 87.83203125 74.9765625 87.83203125 72.9765625 85.83203125 C72.8515625 83.33203125 72.8515625 83.33203125 72.9765625 80.83203125 C72.9765625 77.94807388 71.91750923 75.5372531 70.9765625 72.83203125 C68.9965625 72.50203125 67.0165625 72.17203125 64.9765625 71.83203125 C65.6365625 71.50203125 66.2965625 71.17203125 66.9765625 70.83203125 C66.37794508 68.48031994 65.70731898 66.14609345 64.9765625 63.83203125 C64.3165625 63.50203125 63.6565625 63.17203125 62.9765625 62.83203125 C63.3065625 64.48203125 63.6365625 66.13203125 63.9765625 67.83203125 C62.3265625 68.82203125 60.6765625 69.81203125 58.9765625 70.83203125 C58.9765625 68.19203125 58.9765625 65.55203125 58.9765625 62.83203125 C58.6465625 62.83203125 58.3165625 62.83203125 57.9765625 62.83203125 C57.9765625 60.49869792 57.9765625 58.16536458 57.9765625 55.83203125 C57.6465625 55.17203125 57.3165625 54.51203125 56.9765625 53.83203125 C55.6565625 53.83203125 54.3365625 53.83203125 52.9765625 53.83203125 C52.4815625 54.82203125 52.4815625 54.82203125 51.9765625 55.83203125 C50.9865625 55.50203125 49.9965625 55.17203125 48.9765625 54.83203125 C48.9765625 52.85203125 48.9765625 50.87203125 48.9765625 48.83203125 C48.3165625 48.83203125 47.6565625 48.83203125 46.9765625 48.83203125 C47.3065625 46.85203125 47.6365625 44.87203125 47.9765625 42.83203125 C46.9865625 43.16203125 45.9965625 43.49203125 44.9765625 43.83203125 C44.6053125 43.25453125 44.2340625 42.67703125 43.8515625 42.08203125 C42.00858911 39.6502471 42.00858911 39.6502471 39.0390625 37.89453125 C35.95815555 35.81963473 34.19810792 33.76764484 31.9765625 30.83203125 C31.3165625 30.50203125 30.6565625 30.17203125 29.9765625 29.83203125 C29.9765625 29.17203125 29.9765625 28.51203125 29.9765625 27.83203125 C29.3165625 27.83203125 28.6565625 27.83203125 27.9765625 27.83203125 C27.4815625 25.85203125 27.4815625 25.85203125 26.9765625 23.83203125 C25.5534375 23.86296875 25.5534375 23.86296875 24.1015625 23.89453125 C20.9765625 23.83203125 20.9765625 23.83203125 18.9765625 22.83203125 C18.9765625 21.84203125 18.9765625 20.85203125 18.9765625 19.83203125 C18.3578125 19.54328125 17.7390625 19.25453125 17.1015625 18.95703125 C14.9765625 17.83203125 14.9765625 17.83203125 12.9765625 15.83203125 C11.9865625 15.50203125 10.9965625 15.17203125 9.9765625 14.83203125 C8.7890625 11.76953125 8.7890625 11.76953125 7.9765625 8.83203125 C5.6665625 8.50203125 3.3565625 8.17203125 0.9765625 7.83203125 C0.6465625 6.51203125 0.3165625 5.19203125 -0.0234375 3.83203125 C-1.0134375 4.32703125 -1.0134375 4.32703125 -2.0234375 4.83203125 C-2.0234375 5.49203125 -2.0234375 6.15203125 -2.0234375 6.83203125 C-3.6734375 7.16203125 -5.3234375 7.49203125 -7.0234375 7.83203125 C-7.3534375 5.52203125 -7.6834375 3.21203125 -8.0234375 0.83203125 C-4.75221911 -1.03463054 -3.5855942 -1.38513264 0 0 Z " fill="#39B5DD" transform="translate(503.0234375,216.16796875)"/>
<path d="M0 0 C0.33 0 0.66 0 1 0 C1.93858789 13.14023039 -2.97793834 26.06208248 -8 38 C-8.24588867 38.60247559 -8.49177734 39.20495117 -8.74511719 39.82568359 C-15.1039587 55.38769159 -23.0152485 69.88770606 -33.06640625 83.375 C-34.97801979 85.81404678 -34.97801979 85.81404678 -36 88 C-36.66 88 -37.32 88 -38 88 C-38.20625 88.680625 -38.4125 89.36125 -38.625 90.0625 C-40.42895027 93.91639375 -42.9010345 97.07787764 -46 100 C-46.66 100 -47.32 100 -48 100 C-48.27094482 100.59329102 -48.54188965 101.18658203 -48.82104492 101.79785156 C-50.71659745 105.33851915 -53.50485534 107.91431006 -56.3125 110.75 C-56.88162109 111.35199219 -57.45074219 111.95398438 -58.03710938 112.57421875 C-62.31746292 116.90862957 -62.31746292 116.90862957 -65.91796875 117.390625 C-66.60503906 117.26171875 -67.29210937 117.1328125 -68 117 C-68 117.66 -68 118.32 -68 119 C-68.99 119 -69.98 119 -71 119 C-71.33 119.99 -71.66 120.98 -72 122 C-74.06640625 123.60546875 -74.06640625 123.60546875 -76.5625 125.1875 C-77.38878906 125.71730469 -78.21507812 126.24710938 -79.06640625 126.79296875 C-79.70449219 127.19128906 -80.34257813 127.58960938 -81 128 C-81.66 125.69 -82.32 123.38 -83 121 C-82.01 121 -81.02 121 -80 121 C-77.8817921 120.76230794 -77.8817921 120.76230794 -76 120 C-75.67 119.01 -75.34 118.02 -75 117 C-74.01 116.505 -74.01 116.505 -73 116 C-73 114.68 -73 113.36 -73 112 C-71.68 112.33 -70.36 112.66 -69 113 C-68.608125 112.4225 -68.21625 111.845 -67.8125 111.25 C-65.76368833 108.70664759 -63.6738797 106.87171579 -61 105 C-60.01 105 -59.02 105 -58 105 C-58 104.34 -58 103.68 -58 103 C-57.01 102.01 -57.01 102.01 -56 101 C-55.71125 100.319375 -55.4225 99.63875 -55.125 98.9375 C-54 97 -54 97 -51.875 96.25 C-51.25625 96.1675 -50.6375 96.085 -50 96 C-50.33 94.02 -50.66 92.04 -51 90 C-50.34 89.67 -49.68 89.34 -49 89 C-48.67 89.66 -48.34 90.32 -48 91 C-47.34 91 -46.68 91 -46 91 C-46 91.66 -46 92.32 -46 93 C-45.01 93 -44.02 93 -43 93 C-42.58572754 92.1184021 -42.58572754 92.1184021 -42.16308594 91.21899414 C-41.05585711 89.10656702 -39.85881782 87.36936815 -38.390625 85.49609375 C-37.88644043 84.84406982 -37.38225586 84.1920459 -36.86279297 83.52026367 C-36.33057129 82.83295166 -35.79834961 82.14563965 -35.25 81.4375 C-30.50720611 75.19746021 -26.5337183 69.00512923 -23 62 C-22.22670791 60.58761786 -21.4489611 59.17767006 -20.66796875 57.76953125 C-13.82466217 45.3162972 -7.14137572 32.18661414 -5 18 C-4.31640625 16.015625 -4.31640625 16.015625 -3.5625 14.25 C-1.733 9.62244118 -0.85145795 4.88837037 0 0 Z " fill="#18A5D0" transform="translate(603,440)"/>
<path d="M0 0 C0 0.99 0 1.98 0 3 C-0.7425 2.979375 -1.485 2.95875 -2.25 2.9375 C-4.88950158 2.8930205 -4.88950158 2.8930205 -6.9375 3.5 C-9.65009956 4.15759989 -12.22052358 4.06316992 -15 4 C-15 2 -15 2 -13.5 0.375 C-13.005 -0.07875 -12.51 -0.5325 -12 -1 C-13.485 -1.495 -13.485 -1.495 -15 -2 C-15 -2.66 -15 -3.32 -15 -4 C-16.2684375 -3.938125 -16.2684375 -3.938125 -17.5625 -3.875 C-21.32578136 -4.01184659 -24.40147779 -4.9337712 -28 -6 C-29.32 -6 -30.64 -6 -32 -6 C-32 -5.34 -32 -4.68 -32 -4 C-34.31 -4 -36.62 -4 -39 -4 C-39 -4.66 -39 -5.32 -39 -6 C-36.5 -7.625 -36.5 -7.625 -34 -9 C-35.24891614 -9.48198463 -36.49918808 -9.96045677 -37.75 -10.4375 C-38.44609375 -10.70433594 -39.1421875 -10.97117188 -39.859375 -11.24609375 C-41.90246984 -11.96565088 -43.87088493 -12.59731954 -46 -13 C-46.33 -12.67 -46.66 -12.34 -47 -12 C-48.66617115 -11.95936168 -50.33388095 -11.957279 -52 -12 C-51.67 -12.66 -51.34 -13.32 -51 -14 C-51.66 -14 -52.32 -14 -53 -14 C-53.33 -13.34 -53.66 -12.68 -54 -12 C-57 -13 -57 -13 -59 -16 C-60.32 -14.68 -61.64 -13.36 -63 -12 C-63 -12.66 -63 -13.32 -63 -14 C-65.64 -14.66 -68.28 -15.32 -71 -16 C-71 -16.99 -71 -17.98 -71 -19 C-85.52 -19 -100.04 -19 -115 -19 C-114.67 -19.99 -114.34 -20.98 -114 -22 C-74.70210931 -26.09353028 -35.18222391 -17.53780555 0 0 Z " fill="#3FB5DD" transform="translate(495,212)"/>
<path d="M0 0 C1.23472046 -0.00809692 1.23472046 -0.00809692 2.49438477 -0.01635742 C6.15106122 -0.00965051 9.80493946 0.042291 13.4609375 0.11328125 C13.4609375 1.10328125 13.4609375 2.09328125 13.4609375 3.11328125 C12.8628125 3.25765625 12.2646875 3.40203125 11.6484375 3.55078125 C8.57064188 4.34221441 6.74551024 4.82870851 4.4609375 7.11328125 C1.9609375 6.73828125 1.9609375 6.73828125 -0.5390625 6.11328125 C-1.1990625 6.11328125 -1.8590625 6.11328125 -2.5390625 6.11328125 C-2.5390625 5.45328125 -2.5390625 4.79328125 -2.5390625 4.11328125 C-4.8490625 4.44328125 -7.1590625 4.77328125 -9.5390625 5.11328125 C-9.5390625 6.76328125 -9.5390625 8.41328125 -9.5390625 10.11328125 C-10.5290625 9.78328125 -11.5190625 9.45328125 -12.5390625 9.11328125 C-12.5390625 8.12328125 -12.5390625 7.13328125 -12.5390625 6.11328125 C-15.94218988 7.17203199 -18.55259481 8.12230279 -21.5390625 10.11328125 C-22.1578125 10.25765625 -22.7765625 10.40203125 -23.4140625 10.55078125 C-25.6676476 11.02478723 -25.6676476 11.02478723 -27.77734375 12.60546875 C-30.9645263 14.34557124 -33.24576554 14.60266054 -36.8515625 14.80078125 C-37.92019531 14.86652344 -38.98882812 14.93226563 -40.08984375 15 C-41.30220703 15.05607422 -41.30220703 15.05607422 -42.5390625 15.11328125 C-42.5390625 16.76328125 -42.5390625 18.41328125 -42.5390625 20.11328125 C-43.5290625 20.11328125 -44.5190625 20.11328125 -45.5390625 20.11328125 C-45.8690625 20.44328125 -46.1990625 20.77328125 -46.5390625 21.11328125 C-50.18612132 22.28975184 -50.18612132 22.28975184 -52.5390625 21.11328125 C-54.57050891 22.0477466 -56.57439837 23.04552901 -58.5390625 24.11328125 C-57.8790625 24.77328125 -57.2190625 25.43328125 -56.5390625 26.11328125 C-57.5290625 28.58828125 -57.5290625 28.58828125 -58.5390625 31.11328125 C-59.4053125 30.58734375 -59.4053125 30.58734375 -60.2890625 30.05078125 C-62.98946598 28.92561313 -63.80557476 29.28495163 -66.5390625 30.11328125 C-68.20529889 30.15115026 -69.87303847 30.1595597 -71.5390625 30.11328125 C-71.4140625 28.37109375 -71.4140625 28.37109375 -70.5390625 26.11328125 C-68.55079742 24.51645586 -66.72358702 23.26474926 -64.5390625 21.98828125 C-63.56718994 21.4144873 -63.56718994 21.4144873 -62.57568359 20.82910156 C-47.3930966 12.25140797 -30.36843864 6.49772623 -13.5390625 2.11328125 C-12.74628906 1.86964844 -11.95351563 1.62601563 -11.13671875 1.375 C-7.44185041 0.33249396 -3.82804179 0.02399134 0 0 Z " fill="#3BB4DD" transform="translate(362.5390625,192.88671875)"/>
<path d="M0 0 C0 1.32 0 2.64 0 4 C0.66 4.33 1.32 4.66 2 5 C1.34 5 0.68 5 0 5 C0.66 5.66 1.32 6.32 2 7 C2.14507695 9.74485593 2.18652423 12.38480543 2.125 15.125 C2.11597656 15.87910156 2.10695313 16.63320313 2.09765625 17.41015625 C2.0740687 19.27357254 2.03819719 21.13682593 2 23 C1.34 23 0.68 23 0 23 C0.02320313 23.56847656 0.04640625 24.13695312 0.0703125 24.72265625 C0.19191688 29.92558648 -0.32276508 34.07312243 -2 39 C-2.66 39 -3.32 39 -4 39 C-3.773125 40.051875 -3.54625 41.10375 -3.3125 42.1875 C-2.94912343 46.6206942 -3.6749475 47.38325166 -6 51 C-6.59987103 53.3589523 -7.05584391 55.71171165 -7.47265625 58.109375 C-7.64667969 58.73328125 -7.82070313 59.3571875 -8 60 C-8.99 60.495 -8.99 60.495 -10 61 C-9.29368094 51.98697087 -7.08387893 43.33549632 -4.93579102 34.58007812 C-1.8062352 22.42812453 -1.8062352 22.42812453 -2 10 C-4.22990529 6.84777425 -4.22990529 6.84777425 -7 5 C-7.33 4.67 -7.66 4.34 -8 4 C-14.65078217 4.25579931 -20.04846142 6.4519848 -26.14453125 9.0390625 C-29 10 -29 10 -32 9 C-29.06279492 7.47700477 -26.0831351 6.19899698 -23 5 C-23.33 4.01 -23.66 3.02 -24 2 C-22.68 1.67 -21.36 1.34 -20 1 C-20 1.66 -20 2.32 -20 3 C-18.97519531 2.7834375 -17.95039063 2.566875 -16.89453125 2.34375 C-15.53390759 2.06224166 -14.17322749 1.78100605 -12.8125 1.5 C-12.13896484 1.35691406 -11.46542969 1.21382813 -10.77148438 1.06640625 C-7.12490207 0.31930158 -3.72351043 -0.17352282 0 0 Z " fill="#40B4DA" transform="translate(504,313)"/>
<path d="M0 0 C2.35953094 2.35953094 2.49141413 3.77895617 3 7 C3.66 6.34 4.32 5.68 5 5 C11.38760486 24.5365574 14.19215155 43.59089059 16 64 C15.34 64 14.68 64 14 64 C14 69.28 14 74.56 14 80 C13.67 80 13.34 80 13 80 C12.98541748 79.22922119 12.97083496 78.45844238 12.95581055 77.66430664 C12.88076834 74.12989827 12.78429353 70.59637693 12.6875 67.0625 C12.66494141 65.85013672 12.64238281 64.63777344 12.61914062 63.38867188 C12.43344294 57.1593587 12.02399146 51.69246919 9.72973633 45.86499023 C7.73526869 40.76772081 7.73526869 40.76772081 8.625 38.1875 C9.21910921 34.72186292 7.38457744 32.15683656 6 29 C5.8125 26.0625 5.8125 26.0625 6 24 C5.34 24 4.68 24 4 24 C3.96261719 23.39671875 3.92523437 22.7934375 3.88671875 22.171875 C3.61067544 17.18211715 3.61067544 17.18211715 1.375 12.875 C0 11 0 11 0.3125 7.25 C0.539375 6.1775 0.76625 5.105 1 4 C0.34 4 -0.32 4 -1 4 C-0.67 2.68 -0.34 1.36 0 0 Z " fill="#34AFD7" transform="translate(594,328)"/>
<path d="M0 0 C6.1710542 4.01608289 12.17713098 8.23506762 18.12548828 12.57177734 C24.89298428 17.5101092 24.89298428 17.5101092 33 18 C36.21617458 16.35451533 37.65061241 14.94726205 38.90625 11.54296875 C39.41804967 9.75422889 39.8923293 7.95422755 40.32421875 6.14453125 C40.54722656 5.43683594 40.77023437 4.72914063 41 4 C41.66 3.67 42.32 3.34 43 3 C43 3.99 43 4.98 43 6 C44.32 6.33 45.64 6.66 47 7 C47 6.01 47 5.02 47 4 C47.66 4 48.32 4 49 4 C49.495 5.485 49.495 5.485 50 7 C49.34 7.66 48.68 8.32 48 9 C47.731875 9.763125 47.46375 10.52625 47.1875 11.3125 C45.47714632 15.18330042 42.80843786 18.09578107 39 20 C38.34 19.67 37.68 19.34 37 19 C37 19.66 37 20.32 37 21 C35.02 21.99 35.02 21.99 33 23 C33 22.01 33 21.02 33 20 C31.30230469 20.01740234 31.30230469 20.01740234 29.5703125 20.03515625 C28.08854331 20.04453454 26.60677235 20.0536347 25.125 20.0625 C24.37863281 20.07087891 23.63226563 20.07925781 22.86328125 20.08789062 C17.2265625 20.11328125 17.2265625 20.11328125 15 19 C15 17.68 15 16.36 15 15 C10.545 14.01 10.545 14.01 6 13 C5.49852139 10.99408554 4.99724499 8.98181692 4.6875 6.9375 C3.76776429 4.34551754 2.19969145 3.56107135 0 2 C0 1.34 0 0.68 0 0 Z " fill="#1CA8D2" transform="translate(427,489)"/>
<path d="M0 0 C0.66 0 1.32 0 2 0 C2 1.65 2 3.3 2 5 C1.01 5.495 1.01 5.495 0 6 C-1.02716657 8.19891964 -1.94187874 10.36436074 -2.8125 12.625 C-3.07458252 13.2943457 -3.33666504 13.96369141 -3.60668945 14.65332031 C-6.32613103 21.68916615 -8.73059602 28.80687148 -11 36 C-11.50080078 37.50240234 -11.50080078 37.50240234 -12.01171875 39.03515625 C-14.31538268 46.44649133 -13.97485361 52.41818801 -12.375 59.9375 C-12 62 -12 62 -13 65 C-13.66 64.34 -14.32 63.68 -15 63 C-15.66 64.65 -16.32 66.3 -17 68 C-17.33 68 -17.66 68 -18 68 C-17.67 64.37 -17.34 60.74 -17 57 C-17.99 57.495 -17.99 57.495 -19 58 C-15.61086073 37.52739451 -9.6691633 18.44118775 0 0 Z " fill="#1BA1C7" transform="translate(211,306)"/>
<path d="M0 0 C0.33 1.32 0.66 2.64 1 4 C-1.04768831 5.60889796 -2.70809709 6.899919 -5.1875 7.75 C-5.785625 8.1625 -6.38375 8.575 -7 9 C-7.103125 10.051875 -7.20625 11.10375 -7.3125 12.1875 C-8.15391784 16.85354438 -9.83240811 18.47667178 -13.11328125 21.71484375 C-15 23 -15 23 -19 23 C-21.00401011 23.30830925 -23.00511766 23.63729412 -25 24 C-23.91699761 20.75099283 -23.36840631 20.25293388 -20.8125 18.1875 C-15.80903555 13.97693428 -11.29209302 9.31915569 -6.74926758 4.6237793 C-6.1642749 4.02734619 -5.57928223 3.43091309 -4.9765625 2.81640625 C-4.45143066 2.27443604 -3.92629883 1.73246582 -3.38525391 1.17407227 C-2 0 -2 0 0 0 Z " fill="#21A5CC" transform="translate(391,473)"/>
<path d="M0 0 C1.32 0.66 2.64 1.32 4 2 C4 2.66 4 3.32 4 4 C4.66 4.33 5.32 4.66 6 5 C5.34 5 4.68 5 4 5 C2.98888907 8.04913228 2.98888907 8.04913228 4 11 C2.02 11.33 0.04 11.66 -2 12 C-2 12.99 -2 13.98 -2 15 C-3.42578125 16.60546875 -3.42578125 16.60546875 -5.3125 18.1875 C-5.92738281 18.71730469 -6.54226563 19.24710938 -7.17578125 19.79296875 C-9 21 -9 21 -12 21 C-12.33 22.32 -12.66 23.64 -13 25 C-14.32 25.33 -15.64 25.66 -17 26 C-17.33 25.01 -17.66 24.02 -18 23 C-15.92683547 19.8902532 -14.03400866 18.14600613 -11 16 C-10.01 16 -9.02 16 -8 16 C-8 15.34 -8 14.68 -8 14 C-7.34 13.34 -6.68 12.68 -6 12 C-5.71125 11.319375 -5.4225 10.63875 -5.125 9.9375 C-4 8 -4 8 -1.875 7.25 C-1.25625 7.1675 -0.6375 7.085 0 7 C-0.185625 6.030625 -0.37125 5.06125 -0.5625 4.0625 C-0.706875 3.051875 -0.85125 2.04125 -1 1 C-0.67 0.67 -0.34 0.34 0 0 Z " fill="#16A9D6" transform="translate(553,529)"/>
<path d="M0 0 C2.35953094 2.35953094 2.49141413 3.77895617 3 7 C3.66 6.34 4.32 5.68 5 5 C5.70386802 7.03608174 6.38742855 9.07919024 7.0625 11.125 C7.44535156 12.26195312 7.82820312 13.39890625 8.22265625 14.5703125 C9.04570391 18.20164842 8.75174809 20.39952229 8 24 C8.0791201 26.29415187 8.0791201 26.29415187 8.4375 28.375 C8.623125 29.57125 8.80875 30.7675 9 32 C7.5 30.8125 7.5 30.8125 6 29 C5.8125 26.3125 5.8125 26.3125 6 24 C5.34 24 4.68 24 4 24 C3.96261719 23.39671875 3.92523437 22.7934375 3.88671875 22.171875 C3.61067544 17.18211715 3.61067544 17.18211715 1.375 12.875 C0 11 0 11 0.3125 7.25 C0.539375 6.1775 0.76625 5.105 1 4 C0.34 4 -0.32 4 -1 4 C-0.67 2.68 -0.34 1.36 0 0 Z " fill="#3AB9E4" transform="translate(594,328)"/>
<path d="M0 0 C5.13501244 1.63064498 9.060455 4.74181649 13.3125 7.9375 C14.42334961 8.74477539 14.42334961 8.74477539 15.55664062 9.56835938 C16.25595703 10.09107422 16.95527344 10.61378906 17.67578125 11.15234375 C18.31427002 11.62663818 18.95275879 12.10093262 19.6105957 12.58959961 C21 14 21 14 21 17 C19.125 17.625 19.125 17.625 17 18 C14.64046906 15.64046906 14.50858587 14.22104383 14 11 C13.01 10.67 12.02 10.34 11 10 C11 9.34 11 8.68 11 8 C10.34 8 9.68 8 9 8 C8.67 8.66 8.34 9.32 8 10 C7.34 8.35 6.68 6.7 6 5 C5.62875 5.474375 5.2575 5.94875 4.875 6.4375 C2.37353038 8.52205802 0.18406582 8.64621491 -3 9 C-3.36923077 3.46153846 -3.36923077 3.46153846 -1.5 1.125 C-1.005 0.75375 -0.51 0.3825 0 0 Z " fill="#25A7CB" transform="translate(401,471)"/>
<path d="M0 0 C2.64 0 5.28 0 8 0 C4.68575545 2.20949637 1.27222892 3.611284 -2.40625 5.07421875 C-3.12735962 5.36230911 -3.84846924 5.65039948 -4.59143066 5.94721985 C-6.1137263 6.55343457 -7.63681828 7.15765286 -9.16064453 7.76000977 C-11.49504056 8.68553372 -13.82362368 9.62475534 -16.15234375 10.56445312 C-17.63247424 11.15189468 -19.11293234 11.73851157 -20.59375 12.32421875 C-21.2906897 12.60746506 -21.98762939 12.89071136 -22.70568848 13.18254089 C-27.65715804 15.11428065 -27.65715804 15.11428065 -31 14 C-28.37575342 12.25050228 -26.44272784 11.34610019 -23.5 10.375 C-22.7265625 10.11460937 -21.953125 9.85421875 -21.15625 9.5859375 C-19 9 -19 9 -16 9 C-16 8.01 -16 7.02 -16 6 C-18.31 6.66 -20.62 7.32 -23 8 C-21.9609375 6.0390625 -21.9609375 6.0390625 -20 4 C-16.6015625 3.4609375 -16.6015625 3.4609375 -12.625 3.375 C-7.92222908 3.25441613 -4.26572717 3.05874864 0 1 C0 0.67 0 0.34 0 0 Z " fill="#35AED3" transform="translate(384,354)"/>
<path d="M0 0 C1.98 0 3.96 0 6 0 C7.31626692 3.61973402 8 6.09567131 8 10 C8.99 10 9.98 10 11 10 C11 9.34 11 8.68 11 8 C11.66 8 12.32 8 13 8 C13 8.66 13 9.32 13 10 C13.99 10.33 14.98 10.66 16 11 C16 14.3 16 17.6 16 21 C15.01 20.34 14.02 19.68 13 19 C13 18.34 13 17.68 13 17 C12.195625 16.87625 11.39125 16.7525 10.5625 16.625 C9.2940625 16.315625 9.2940625 16.315625 8 16 C7.67 15.34 7.34 14.68 7 14 C7.66 14 8.32 14 9 14 C8.3503125 13.07316406 7.700625 12.14632812 7.03125 11.19140625 C6.18737779 9.98185609 5.34363442 8.77221603 4.5 7.5625 C4.07074219 6.95083984 3.64148438 6.33917969 3.19921875 5.70898438 C0 1.11328125 0 1.11328125 0 0 Z " fill="#11A7D0" transform="translate(224,512)"/>
<path d="M0 0 C3.5324706 2.3549804 3.66002311 3.24221407 4.7890625 7.19921875 C5.09070313 8.24400391 5.39234375 9.28878906 5.703125 10.36523438 C6.00734375 11.46158203 6.3115625 12.55792969 6.625 13.6875 C6.93695313 14.76451172 7.24890625 15.84152344 7.5703125 16.95117188 C9.08951276 22.29129176 10.41512839 27.47533438 11 33 C7.99801155 29.99801155 7.04007463 28.04194047 6.875 23.75 C6.91625 22.8425 6.9575 21.935 7 21 C6.34 21 5.68 21 5 21 C4.67 21.66 4.34 22.32 4 23 C4 20.03 4 17.06 4 14 C2.35 13.67 0.7 13.34 -1 13 C-0.67 10.03 -0.34 7.06 0 4 C-0.66 4 -1.32 4 -2 4 C-1.34 2.68 -0.68 1.36 0 0 Z " fill="#1EA8D0" transform="translate(338,444)"/>
<path d="M0 0 C-2.11717628 0.84687051 -4.23435775 1.69372802 -6.3515625 2.54052734 C-8.16805846 3.26719116 -9.98446383 3.99408145 -11.80078125 4.72119141 C-16.04091893 6.41829454 -20.28172854 8.11351577 -24.52734375 9.796875 C-25.20337646 10.0654834 -25.87940918 10.3340918 -26.57592773 10.61083984 C-28.39390852 11.33286495 -30.21255884 12.05320361 -32.03125 12.7734375 C-33.50078125 13.38058594 -33.50078125 13.38058594 -35 14 C-35.77859375 14.28875 -36.5571875 14.5775 -37.359375 14.875 C-39.21916365 15.89276842 -39.21916365 15.89276842 -39.609375 18.1640625 C-39.65578125 18.97617187 -39.7021875 19.78828125 -39.75 20.625 C-39.80671875 21.44226563 -39.8634375 22.25953125 -39.921875 23.1015625 C-39.94765625 23.72804688 -39.9734375 24.35453125 -40 25 C-40.66 24.67 -41.32 24.34 -42 24 C-42.35859125 17.78441836 -42.35859125 17.78441836 -41 14.8125 C-36.0304799 10.30887241 -29.31635286 8.26890126 -23.1015625 6.02734375 C-20.67639134 5.06047848 -20.67639134 5.06047848 -19 2 C-18.34 2 -17.68 2 -17 2 C-16.67 2.66 -16.34 3.32 -16 4 C-15.608125 3.505 -15.21625 3.01 -14.8125 2.5 C-12.41402912 0.51505858 -11.05789439 0.92719299 -8 1 C-7.13375 0.649375 -6.2675 0.29875 -5.375 -0.0625 C-3 -1 -3 -1 0 0 Z " fill="#30A6C9" transform="translate(316,384)"/>
<path d="M0 0 C0 3 0 3 -1.6875 5 C-4 7 -4 7 -6.31640625 8.27734375 C-9.5211413 10.33453175 -11.72176191 12.72012454 -14.25 15.5625 C-15.55710938 17.01849609 -15.55710938 17.01849609 -16.890625 18.50390625 C-18.99696495 20.79748181 -18.99696495 20.79748181 -20 23 C-20.66 23 -21.32 23 -22 23 C-22.433125 23.86625 -22.433125 23.86625 -22.875 24.75 C-23.91666667 26.83333333 -24.95833333 28.91666667 -26 31 C-26.99 30.67 -27.98 30.34 -29 30 C-26.36883683 24.73767366 -23.31465028 21.0992169 -19.07421875 17.0390625 C-17.08871179 15.0872082 -15.29439307 13.06449224 -13.5 10.9375 C-4.07858911 0 -4.07858911 0 0 0 Z " fill="#2AA8D0" transform="translate(263,241)"/>
<path d="M0 0 C1.63001953 0.01353516 1.63001953 0.01353516 3.29296875 0.02734375 C4.12441406 0.03894531 4.95585937 0.05054688 5.8125 0.0625 C2.99335571 2.88164429 -0.08607096 3.26793177 -3.875 4.28125 C-6.34644322 4.92571736 -6.34644322 4.92571736 -8.1875 7.0625 C-13.52083333 7.39583333 -13.52083333 7.39583333 -16.1875 6.0625 C-16.75984375 6.20558594 -17.3321875 6.34867188 -17.921875 6.49609375 C-20.81037468 7.21821867 -23.46393312 7.15732138 -26.4375 7.125 C-27.51515625 7.11597656 -28.5928125 7.10695313 -29.703125 7.09765625 C-30.52296875 7.08605469 -31.3428125 7.07445312 -32.1875 7.0625 C-28.79279272 5.09539578 -25.61113712 4.46867773 -21.75 3.875 C-20.63753906 3.69582031 -19.52507812 3.51664063 -18.37890625 3.33203125 C-15.35284289 3.07646409 -13.10502657 3.29358178 -10.1875 4.0625 C-9.8575 3.0725 -9.5275 2.0825 -9.1875 1.0625 C-5.90230525 -0.03256492 -3.45086585 -0.03710608 0 0 Z " fill="#11A4CD" transform="translate(448.1875,599.9375)"/>
<path d="M0 0 C1.7015625 0.2475 1.7015625 0.2475 3.4375 0.5 C6.83278957 1.31993361 6.83278957 1.31993361 9 0 C9.66 0.33 10.32 0.66 11 1 C11.72886734 3.7696959 12 6.12862585 12 9 C15.13349732 10.04449911 15.98968256 9.93423645 19 9 C18.67 10.65 18.34 12.3 18 14 C14.0355211 13.38644969 11.4475346 11.40143734 8.25 9.0625 C7.26515625 8.35222656 6.2803125 7.64195312 5.265625 6.91015625 C4.51796875 6.27980469 3.7703125 5.64945313 3 5 C3 4.34 3 3.68 3 3 C1.68 2.34 0.36 1.68 -1 1 C-0.67 0.67 -0.34 0.34 0 0 Z " fill="#0DA9D3" transform="translate(269,560)"/>
<path d="M0 0 C0.763125 0.309375 1.52625 0.61875 2.3125 0.9375 C4.18789677 1.67893593 6.08684652 2.36228217 8 3 C8 3.66 8 4.32 8 5 C8.825 5.2475 9.65 5.495 10.5 5.75 C13.20706437 6.7168087 15.48294572 7.73136552 18 9.0625 C21.33854209 10.79879722 24.28179218 11.39471036 28 12 C29.5625 13.4375 29.5625 13.4375 31 15 C33.59915538 16.19027984 33.59915538 16.19027984 36 17 C36 17.33 36 17.66 36 18 C26.15079981 17.14354781 17.99411784 12.59611239 9.4375 7.9375 C8.22163208 7.28406616 8.22163208 7.28406616 6.98120117 6.61743164 C6.22299072 6.19582764 5.46478027 5.77422363 4.68359375 5.33984375 C3.99837646 4.96206787 3.31315918 4.58429199 2.60717773 4.19506836 C1 3 1 3 0 0 Z " fill="#0496BB" transform="translate(289,577)"/>
<path d="M0 0 C0.66 0 1.32 0 2 0 C2.30535107 12.1461869 1.38403895 23.93908911 0 36 C-0.66 36 -1.32 36 -2 36 C-2.33 37.32 -2.66 38.64 -3 40 C-3.08772122 34.71333446 -2.8054476 29.74943997 -2.0625 24.5 C-0.95815928 16.35086143 -0.41485144 8.2096917 0 0 Z " fill="#29ADD1" transform="translate(608,392)"/>
<path d="M0 0 C0.99 0 1.98 0 3 0 C3 0.66 3 1.32 3 2 C3.69867188 1.855625 4.39734375 1.71125 5.1171875 1.5625 C6.02726562 1.376875 6.93734375 1.19125 7.875 1 C8.77992188 0.814375 9.68484375 0.62875 10.6171875 0.4375 C13 0 13 0 15 0 C15.5625 1.9375 15.5625 1.9375 16 4 C15.67 4.33 15.34 4.66 15 5 C15.474375 5.433125 15.94875 5.86625 16.4375 6.3125 C18 8 18 8 19 11 C14.76570244 9.68938409 10.92592596 8.05643741 7 6 C7 5.34 7 4.68 7 4 C6.21625 3.896875 5.4325 3.79375 4.625 3.6875 C2 3 2 3 0 0 Z " fill="#10A7D1" transform="translate(290,576)"/>
<path d="M0 0 C6.05984082 1.46586427 12.03008776 3.14200367 18 4.9375 C18.85078125 5.18951172 19.7015625 5.44152344 20.578125 5.70117188 C25.80830634 7.2694241 30.90885125 9.02600135 36 11 C33 12 33 12 30.4375 11.9375 C27.81610691 11.72472678 27.81610691 11.72472678 26 14 C24.68 14 23.36 14 22 14 C22.33 12.68 22.66 11.36 23 10 C19.86501708 8.14223235 17.62528568 7.79859524 14 8 C13.67 7.01 13.34 6.02 13 5 C12.31292969 4.86722656 11.62585938 4.73445313 10.91796875 4.59765625 C10.01691406 4.42105469 9.11585938 4.24445313 8.1875 4.0625 C7.29417969 3.88847656 6.40085937 3.71445312 5.48046875 3.53515625 C3 3 3 3 0 2 C0 1.34 0 0.68 0 0 Z " fill="#30A5C5" transform="translate(282,412)"/>
<path d="M0 0 C0 1.65 0 3.3 0 5 C-0.54269531 5.18175781 -1.08539063 5.36351562 -1.64453125 5.55078125 C-2.35996094 5.80214844 -3.07539063 6.05351562 -3.8125 6.3125 C-4.52019531 6.55613281 -5.22789062 6.79976562 -5.95703125 7.05078125 C-8.14890927 8.06918729 -9.32798132 9.28965424 -11 11 C-11.66 11 -12.32 11 -13 11 C-13 12.32 -13 13.64 -13 15 C-14.65 15 -16.3 15 -18 15 C-18.36923077 9.46153846 -18.36923077 9.46153846 -16.5 7.125 C-16.005 6.75375 -15.51 6.3825 -15 6 C-14.34 6.33 -13.68 6.66 -13 7 C-11.65022151 6.36729133 -10.31647119 5.69937532 -9 5 C-8.34 5 -7.68 5 -7 5 C-7 4.34 -7 3.68 -7 3 C-2.61538462 0 -2.61538462 0 0 0 Z " fill="#35B8E2" transform="translate(288,225)"/>
<path d="M0 0 C0.99 0 1.98 0 3 0 C3 0.66 3 1.32 3 2 C3.55816406 1.83886719 4.11632812 1.67773438 4.69140625 1.51171875 C10.43236379 0.2391884 16.73773562 0.193459 22 3 C22 4.98 22 6.96 22 9 C21.5875 8.55527344 21.175 8.11054688 20.75 7.65234375 C17.57090771 4.53711715 15.93699057 3.04846503 11.375 2.8125 C6.33770617 3.87142031 1.5766708 6.03545741 -3.14453125 8.0390625 C-6 9 -6 9 -9 8 C-6.06279492 6.47700477 -3.0831351 5.19899698 0 4 C-0.33 3.01 -0.66 2.02 -1 1 C-0.67 0.67 -0.34 0.34 0 0 Z " fill="#44B5D9" transform="translate(481,314)"/>
<path d="M0 0 C0.99 0.33 1.98 0.66 3 1 C0.83811358 4.98242235 -1.54391812 8.0496862 -5 11 C-6.32 11 -7.64 11 -9 11 C-11.00401011 11.30830925 -13.00511766 11.63729412 -15 12 C-14.67 11.01 -14.34 10.02 -14 9 C-12.948125 8.5978125 -12.948125 8.5978125 -11.875 8.1875 C-8.45629571 6.77542649 -6.26797504 4.8039951 -3.55078125 2.33984375 C-2 1 -2 1 0 0 Z " fill="#11AAD2" transform="translate(381,485)"/>
<path d="M0 0 C1.32 0 2.64 0 4 0 C4 0.66 4 1.32 4 2 C4.763125 1.649375 5.52625 1.29875 6.3125 0.9375 C9 0 9 0 12 1 C9.69 2.32 7.38 3.64 5 5 C5 5.99 5 6.98 5 8 C4.01 7.67 3.02 7.34 2 7 C-0.10234944 7.74851382 -0.10234944 7.74851382 -2.1875 8.9375 C-2.90292969 9.31777344 -3.61835938 9.69804688 -4.35546875 10.08984375 C-4.89816406 10.39019531 -5.44085938 10.69054687 -6 11 C-6.66 10.34 -7.32 9.68 -8 9 C-7.21625 8.690625 -6.4325 8.38125 -5.625 8.0625 C-3.07669872 7.07124962 -3.07669872 7.07124962 -1 6 C-1.020625 5.195625 -1.04125 4.39125 -1.0625 3.5625 C-1 1 -1 1 0 0 Z " fill="#0EA8CF" transform="translate(497,576)"/>
<path d="M0 0 C0.66 0.66 1.32 1.32 2 2 C1.43410156 2.77085937 0.86820313 3.54171875 0.28515625 4.3359375 C-0.44832031 5.33882812 -1.18179688 6.34171875 -1.9375 7.375 C-2.66839844 8.37273438 -3.39929688 9.37046875 -4.15234375 10.3984375 C-5.9779569 12.82817109 -5.9779569 12.82817109 -7 15 C-7.66 15 -8.32 15 -9 15 C-9.20625 15.70125 -9.4125 16.4025 -9.625 17.125 C-11.45781577 20.95725116 -13.90251519 23.10452507 -17 26 C-17.66 25.67 -18.32 25.34 -19 25 C-17.93488182 22.385619 -16.85743074 20.86150415 -14.8125 18.875 C-11.34310503 15.47596031 -8.55871733 11.59137872 -5.6875 7.6875 C-5.13771484 6.94693359 -4.58792969 6.20636719 -4.02148438 5.44335938 C-2.67727821 3.63160324 -1.33691256 1.817141 0 0 Z " fill="#0F9BC1" transform="translate(574,513)"/>
<path d="M0 0 C4.84166786 0.45038771 7.49668287 1.59972161 11 5 C11 5.66 11 6.32 11 7 C11.61875 7.0825 12.2375 7.165 12.875 7.25 C15 8 15 8 16.25 10.0625 C16.4975 10.701875 16.745 11.34125 17 12 C11.25 12.125 11.25 12.125 9 11 C9 10.01 9 9.02 9 8 C8.38125 7.71125 7.7625 7.4225 7.125 7.125 C5 6 5 6 3 4 C2.01 3.67 1.02 3.34 0 3 C0 2.01 0 1.02 0 0 Z " fill="#3CBDEA" transform="translate(513,228)"/>
<path d="M0 0 C-10.37866247 6.91910831 -29.04152154 4.21496159 -41 4 C-41 3.67 -41 3.34 -41 3 C-40.0212793 2.91435791 -39.04255859 2.82871582 -38.03417969 2.74047852 C-34.3960323 2.42127381 -30.7582689 2.09786297 -27.12060547 1.77319336 C-25.54746461 1.63337662 -23.97422252 1.49469405 -22.40087891 1.35717773 C-20.13676697 1.15908582 -17.87305289 0.95689075 -15.609375 0.75390625 C-14.55759064 0.66321617 -14.55759064 0.66321617 -13.48455811 0.57069397 C-1.58682809 -0.51005189 -1.58682809 -0.51005189 0 0 Z " fill="#0796BF" transform="translate(436,606)"/>
<path d="M0 0 C1 1 2 2 3 3 C5.10332891 3.71447643 5.10332891 3.71447643 7 4 C7 4.66 7 5.32 7 6 C1.73378394 5.40421223 -2.94408019 4.18691204 -7.9375 2.4375 C-8.62134766 2.20353516 -9.30519531 1.96957031 -10.00976562 1.72851562 C-11.67508501 1.15788171 -13.33782493 0.57972902 -15 0 C-9.23961915 -3.8402539 -5.99973019 -2.76910624 0 0 Z " fill="#ECF8F9" transform="translate(325,421)"/>
<path d="M0 0 C3.8947778 1.47732951 4.97645504 3.45879633 7 7 C8.29579647 8.36984198 9.61992749 9.7151049 11 11 C10.34 11.66 9.68 12.32 9 13 C9 12.34 9 11.68 9 11 C7.68 11 6.36 11 5 11 C4.67 11.66 4.34 12.32 4 13 C3.01 12.67 2.02 12.34 1 12 C1 10.02 1 8.04 1 6 C0.34 6 -0.32 6 -1 6 C-0.67 4.02 -0.34 2.04 0 0 Z " fill="#3DBEE9" transform="translate(551,259)"/>
<path d="M0 0 C-0.33 1.65 -0.66 3.3 -1 5 C-1.91523438 5.02578125 -2.83046875 5.0515625 -3.7734375 5.078125 C-5.55621094 5.16320312 -5.55621094 5.16320312 -7.375 5.25 C-8.55835938 5.29640625 -9.74171875 5.3428125 -10.9609375 5.390625 C-11.96382813 5.59171875 -12.96671875 5.7928125 -14 6 C-14.6831771 7.32494953 -15.35015623 8.65838705 -16 10 C-18.8203125 10.609375 -18.8203125 10.609375 -22.125 10.75 C-23.22070312 10.80671875 -24.31640625 10.8634375 -25.4453125 10.921875 C-26.70988281 10.96054687 -26.70988281 10.96054687 -28 11 C-25.33132863 9.22088575 -23.15651713 8.20141944 -20.18359375 7.08984375 C-19.25482422 6.73986328 -18.32605469 6.38988281 -17.36914062 6.02929688 C-16.40169922 5.66900391 -15.43425781 5.30871094 -14.4375 4.9375 C-12.51921126 4.21830084 -10.6012271 3.4982886 -8.68359375 2.77734375 C-7.83337646 2.46015381 -6.98315918 2.14296387 -6.10717773 1.81616211 C-1.41818726 0 -1.41818726 0 0 0 Z " fill="#D5F6FB" transform="translate(422,343)"/>
<path d="M0 0 C0.48984375 0.38929688 0.9796875 0.77859375 1.484375 1.1796875 C0.494375 2.8296875 -0.495625 4.4796875 -1.515625 6.1796875 C-2.299375 5.9734375 -3.083125 5.7671875 -3.890625 5.5546875 C-5.19 5.3690625 -5.19 5.3690625 -6.515625 5.1796875 C-7.175625 5.8396875 -7.835625 6.4996875 -8.515625 7.1796875 C-11.93567331 6.80794312 -15.18771495 6.02246991 -18.515625 5.1796875 C-15.93870143 4.11895385 -13.35620176 3.08105788 -10.765625 2.0546875 C-10.03601563 1.75175781 -9.30640625 1.44882812 -8.5546875 1.13671875 C-3.07865904 -1.00391056 -3.07865904 -1.00391056 0 0 Z " fill="#E0F5FA" transform="translate(464.515625,327.8203125)"/>
<path d="M0 0 C0 3.74827336 -1.12014942 5.03058613 -3.1875 8.125 C-6.012466 12.41666552 -8.5427966 16.7360975 -10.859375 21.3203125 C-12 23 -12 23 -15 24 C-7.23745819 3.6187291 -7.23745819 3.6187291 0 0 Z " fill="#23A1D0" transform="translate(227,281)"/>
<path d="M0 0 C0.33 0.99 0.66 1.98 1 3 C-0.4375 5.125 -0.4375 5.125 -2 7 C-2 7.33 -2 7.66 -2 8 C-2.94875 8.28875 -3.8975 8.5775 -4.875 8.875 C-8.05211578 9.76825109 -8.05211578 9.76825109 -10 12 C-10 13.32 -10 14.64 -10 16 C-11.65 16 -13.3 16 -15 16 C-13.33481689 11.91633665 -10.45307123 8.93962215 -7.5 5.75 C-7.00113281 5.19570312 -6.50226563 4.64140625 -5.98828125 4.0703125 C-2.24880696 0 -2.24880696 0 0 0 Z M-17 16 C-15 17 -15 17 -15 17 Z " fill="#30B7E1" transform="translate(258,248)"/>
<path d="M0 0 C2.5431516 1.01726064 5.08603409 2.03482332 7.625 3.0625 C9.3964928 3.76177347 11.19322023 4.39774008 13 5 C13.33 4.34 13.66 3.68 14 3 C14 3.66 14 4.32 14 5 C14.66 5 15.32 5 16 5 C16 5.66 16 6.32 16 7 C10.39 7 4.78 7 -1 7 C-1 6.34 -1 5.68 -1 5 C-2.32 4.34 -3.64 3.68 -5 3 C-3.68 3 -2.36 3 -1 3 C-0.67 2.01 -0.34 1.02 0 0 Z " fill="#13A4D3" transform="translate(351,598)"/>
<path d="M0 0 C1.32 0.66 2.64 1.32 4 2 C4 2.66 4 3.32 4 4 C4.66 4.33 5.32 4.66 6 5 C3.69 7.97 1.38 10.94 -1 14 C-1.99 13.67 -2.98 13.34 -4 13 C-3.690625 11.948125 -3.38125 10.89625 -3.0625 9.8125 C-1.99558158 6.1770282 -1.99558158 6.1770282 -1.4375 3.125 C-1 1 -1 1 0 0 Z " fill="#1BACD7" transform="translate(564,515)"/>
<path d="M0 0 C1.9375 0.6875 1.9375 0.6875 4 2 C4.144375 2.825 4.28875 3.65 4.4375 4.5 C4.623125 5.325 4.80875 6.15 5 7 C8.71657692 9.18622172 12.7662558 9.50191245 17 10 C17.33 10.99 17.66 11.98 18 13 C20.01508358 13.73323796 20.01508358 13.73323796 22 14 C20 15 20 15 16.2265625 13.92578125 C14.68986286 13.39620681 13.15610091 12.85805007 11.625 12.3125 C10.47257812 11.92674805 10.47257812 11.92674805 9.296875 11.53320312 C5.05301452 10.03904118 1.75854918 8.75013577 -1 5 C-0.75 2.25 -0.75 2.25 0 0 Z " fill="#C9F3FB" transform="translate(276,402)"/>
<path d="M0 0 C1.16352508 3.97322268 0.60549677 6.89607745 0 11 C0.105149 13.27043951 0.24071169 15.52604378 0.453125 17.7890625 C-0.24295016 21.18542921 -2.48693098 22.74772116 -5 25 C-4.09495828 16.32224704 -3.21443909 8.18220858 0 0 Z " fill="#2CA6D2" transform="translate(478,451)"/>
<path d="M0 0 C2.87310791 3.32588996 3.97084181 6.55462692 5.1875 10.75 C5.53167969 11.92046875 5.87585938 13.0909375 6.23046875 14.296875 C6.48441406 15.18890625 6.73835938 16.0809375 7 17 C10.63 17 14.26 17 18 17 C17.67 17.66 17.34 18.32 17 19 C13.27307162 19.34698988 9.71721611 19.50421113 6 19 C2.8021896 15.88018498 1.93400095 12.98002082 1 8.75 C0.41674773 4.95414614 0.41674773 4.95414614 -2.125 3.5 C-2.74375 3.335 -3.3625 3.17 -4 3 C-3.34 2.34 -2.68 1.68 -2 1 C-1.34 1.33 -0.68 1.66 0 2 C0 1.34 0 0.68 0 0 Z " fill="#2AA5C7" transform="translate(349,478)"/>
<path d="M0 0 C0.99 0.33 1.98 0.66 3 1 C3 1.66 3 2.32 3 3 C3.66 3 4.32 3 5 3 C5.33 3.99 5.66 4.98 6 6 C5.34 6 4.68 6 4 6 C4.33 7.65 4.66 9.3 5 11 C2.525 12.485 2.525 12.485 0 14 C0 11.36 0 8.72 0 6 C-0.33 6 -0.66 6 -1 6 C-1.042721 4.33388095 -1.04063832 2.66617115 -1 1 C-0.67 0.67 -0.34 0.34 0 0 Z " fill="#3DBDE7" transform="translate(562,273)"/>
<path d="M0 0 C2.03125 3.765625 2.03125 3.765625 1.75 5.875 C1.19490992 7.44775523 0.60633002 9.00877933 0 10.5625 C-1.38454222 15.3218639 -1.66662237 20.06952036 -2 25 C-2.99 25.33 -3.98 25.66 -5 26 C-4.56901343 17.03547936 -2.30110566 8.62647053 0 0 Z " fill="#31ABCE" transform="translate(484,422)"/>
<path d="M0 0 C0.99 0 1.98 0 3 0 C5.21854707 4.62197306 6.38281159 7.76824163 6 13 C5.01 13.495 5.01 13.495 4 14 C3.67 13.34 3.34 12.68 3 12 C2.34 13.65 1.68 15.3 1 17 C0.67 17 0.34 17 0 17 C0.33 13.37 0.66 9.74 1 6 C0.01 6.495 0.01 6.495 -1 7 C-0.67 4.69 -0.34 2.38 0 0 Z " fill="#19ABD4" transform="translate(193,357)"/>
<path d="M0 0 C3 1 3 1 5 3 C4.34 4.65 3.68 6.3 3 8 C2.4225 7.649375 1.845 7.29875 1.25 6.9375 C-1.45040348 5.81233188 -2.26651226 6.17167038 -5 7 C-6.66623639 7.03786901 -8.33397597 7.04627845 -10 7 C-7.19527484 3.70032335 -3.83081791 1.91540896 0 0 Z " fill="#3ABCE6" transform="translate(301,216)"/>
<path d="M0 0 C0 0.99 0 1.98 0 3 C-0.928125 2.938125 -1.85625 2.87625 -2.8125 2.8125 C-5.99134943 2.6453266 -5.99134943 2.6453266 -7.5625 4.5625 C-8.036875 5.036875 -8.51125 5.51125 -9 6 C-11.5625 5.6875 -11.5625 5.6875 -14 5 C-14.66 5 -15.32 5 -16 5 C-16 4.34 -16 3.68 -16 3 C-16.99 2.67 -17.98 2.34 -19 2 C-16.20962572 1.47120316 -13.41807402 0.95165912 -10.625 0.4375 C-9.8309375 0.28603516 -9.036875 0.13457031 -8.21875 -0.02148438 C-2.2265625 -1.11328125 -2.2265625 -1.11328125 0 0 Z " fill="#3FBDE7" transform="translate(376,194)"/>
<path d="M0 0 C0.99 0.33 1.98 0.66 3 1 C-8.74502488 11.84701493 -8.74502488 11.84701493 -14 15 C-16.1953125 14.6171875 -16.1953125 14.6171875 -18 14 C-17.00097656 13.30132813 -16.00195312 12.60265625 -14.97265625 11.8828125 C-13.669112 10.96376691 -12.36573523 10.04448374 -11.0625 9.125 C-10.0734668 8.43470703 -10.0734668 8.43470703 -9.06445312 7.73046875 C-5.48857615 5.37103753 -5.48857615 5.37103753 -3 2 C-2.01 2 -1.02 2 0 2 C0 1.34 0 0.68 0 0 Z " fill="#0893BF" transform="translate(535,557)"/>
<path d="M0 0 C6.46684143 0.59682298 12.31293197 2.12454483 18.5 4.0625 C19.87671875 4.48499023 19.87671875 4.48499023 21.28125 4.91601562 C23.52272203 5.6048013 25.76215031 6.29955305 28 7 C28 7.33 28 7.66 28 8 C21.13567368 7.84002629 14.89974337 6.58941299 8.375 4.5625 C7.66408203 4.34505127 6.95316406 4.12760254 6.22070312 3.90356445 C4.45819405 3.33383211 2.72540963 2.67379135 1 2 C0.67 1.34 0.34 0.68 0 0 Z " fill="#0393B9" transform="translate(326,596)"/>
<path d="M0 0 C-1.65863505 4.32504836 -4.871041 7.09418825 -8.125 10.25 C-8.68832031 10.80429687 -9.25164063 11.35859375 -9.83203125 11.9296875 C-11.21686028 13.29104485 -12.60783204 14.64614859 -14 16 C-14.99 15.67 -15.98 15.34 -17 15 C-14.89833613 10.90728614 -12.99649968 9.19807482 -9 7 C-8.443125 6.443125 -7.88625 5.88625 -7.3125 5.3125 C-6.879375 4.879375 -6.44625 4.44625 -6 4 C-5.34 4 -4.68 4 -4 4 C-4 3.01 -4 2.02 -4 1 C-2 0 -2 0 0 0 Z " fill="#109CC1" transform="translate(555,540)"/>
<path d="M0 0 C3.34722818 1.67361409 3.8547522 5.45372693 5.0625 8.8125 C5.33126953 9.53759766 5.60003906 10.26269531 5.87695312 11.00976562 C7.09093523 14.3186994 8.18753843 17.56669466 9 21 C8.34 21.33 7.68 21.66 7 22 C-0.55572289 7.40963855 -0.55572289 7.40963855 0 0 Z " fill="#0996BF" transform="translate(200,463)"/>
<path d="M0 0 C0.53625 0.268125 1.0725 0.53625 1.625 0.8125 C0.965 0.8125 0.305 0.8125 -0.375 0.8125 C-0.46652344 1.38484375 -0.55804688 1.9571875 -0.65234375 2.546875 C-1.55188458 5.36705705 -2.94452241 6.88834262 -4.9375 9.0625 C-5.57816406 9.76890625 -6.21882813 10.4753125 -6.87890625 11.203125 C-7.61947266 11.99976563 -7.61947266 11.99976563 -8.375 12.8125 C-9.365 12.1525 -10.355 11.4925 -11.375 10.8125 C-10.055 10.1525 -8.735 9.4925 -7.375 8.8125 C-7.705 7.4925 -8.035 6.1725 -8.375 4.8125 C-2.95961538 -0.23365385 -2.95961538 -0.23365385 0 0 Z " fill="#2EB6D9" transform="translate(270.375,235.1875)"/>
<path d="M0 0 C3.12361494 2.08240996 3.78443084 3.08766016 5.4375 6.3125 C7.32826843 9.876312 9.44099081 12.87232211 12 16 C12 16.66 12 17.32 12 18 C8.21121744 16.51453018 6.62334949 14.46285806 4.375 11.125 C3.78460938 10.26132812 3.19421875 9.39765625 2.5859375 8.5078125 C-0.0721831 4.30457746 -0.0721831 4.30457746 -1 2 C-0.67 1.34 -0.34 0.68 0 0 Z " fill="#0E93BE" transform="translate(221,508)"/>
<path d="M0 0 C0.66 0 1.32 0 2 0 C2.26554687 0.83144531 2.53109375 1.66289062 2.8046875 2.51953125 C3.33449219 4.14955078 3.33449219 4.14955078 3.875 5.8125 C4.39707031 7.43091797 4.39707031 7.43091797 4.9296875 9.08203125 C5.91959653 12.13315802 5.91959653 12.13315802 8 15 C8.1953125 17.48046875 8.1953125 17.48046875 8.125 20.1875 C8.10695313 21.08855469 8.08890625 21.98960937 8.0703125 22.91796875 C8.03550781 23.94857422 8.03550781 23.94857422 8 25 C5.89194283 21.22510693 4.70064415 17.17427785 3.4375 13.0625 C3.21642578 12.35931641 2.99535156 11.65613281 2.76757812 10.93164062 C1.64394622 7.30954018 0.6519699 3.74333281 0 0 Z " fill="#B7E2FA" transform="translate(339,441)"/>
<path d="M0 0 C0.66 0.33 1.32 0.66 2 1 C2.4140625 3.72265625 2.4140625 3.72265625 2.625 7.0625 C2.69976563 8.16722656 2.77453125 9.27195312 2.8515625 10.41015625 C2.90054688 11.26480469 2.94953125 12.11945313 3 13 C2.01 13 1.02 13 0 13 C0 12.01 0 11.02 0 10 C-0.66 10 -1.32 10 -2 10 C-2 7.03 -2 4.06 -2 1 C-1.34 0.67 -0.68 0.34 0 0 Z " fill="#30B4E3" transform="translate(602,422)"/>
<path d="M0 0 C2.97 0.495 2.97 0.495 6 1 C7.905247 6.10334017 9.42589023 10.46342706 9 16 C8.34 16.33 7.68 16.66 7 17 C6.34 13.04 5.68 9.08 5 5 C4.01 5 3.02 5 2 5 C1.34 3.35 0.68 1.7 0 0 Z " fill="#25A7CC" transform="translate(329,427)"/>
<path d="M0 0 C-3 2 -3 2 -6 2 C-6 2.66 -6 3.32 -6 4 C-6.9075 4.433125 -7.815 4.86625 -8.75 5.3125 C-11.43218449 6.70517271 -13.66139605 8.11112757 -16 10 C-16.66 9.67 -17.32 9.34 -18 9 C-18 8.34 -18 7.68 -18 7 C-13.98344415 3.76325419 -4.99944877 -2.49972439 0 0 Z " fill="#D8F7FB" transform="translate(295,393)"/>
<path d="M0 0 C3.96502948 0.45057153 7.35465276 1.39175857 11 3 C7.61981469 4.04005702 4.5219721 4.08004482 1 4 C1 4.66 1 5.32 1 6 C-1.31 6 -3.62 6 -6 6 C-6 5.34 -6 4.68 -6 4 C-4.36368108 2.95107762 -2.69514137 1.95093297 -1 1 C-0.67 0.67 -0.34 0.34 0 0 Z " fill="#3FBDE6" transform="translate(462,202)"/>
<path d="M0 0 C1.21816406 0.03480469 1.21816406 0.03480469 2.4609375 0.0703125 C3.68683594 0.09738281 3.68683594 0.09738281 4.9375 0.125 C5.87722656 0.15980469 5.87722656 0.15980469 6.8359375 0.1953125 C6.8359375 2.5053125 6.8359375 4.8153125 6.8359375 7.1953125 C5.37526551 6.74448781 3.91745718 6.28437713 2.4609375 5.8203125 C1.64882813 5.56507813 0.83671875 5.30984375 0 5.046875 C-2.1640625 4.1953125 -2.1640625 4.1953125 -4.1640625 2.1953125 C-2.1640625 0.1953125 -2.1640625 0.1953125 0 0 Z " fill="#0DA9D0" transform="translate(313.1640625,584.8046875)"/>
<path d="M0 0 C2.49415718 2.49415718 2.67218669 4.5887947 3.046875 8.0234375 C2.98156312 10.77742178 1.95188553 12.12618989 0 14 C-0.66 13.01 -1.32 12.02 -2 11 C-1.34 11 -0.68 11 0 11 C-0.33 9.02 -0.66 7.04 -1 5 C-1.66 5 -2.32 5 -3 5 C-3 3 -3 3 -1.5 1.375 C-1.005 0.92125 -0.51 0.4675 0 0 Z " fill="#0EA8D2" transform="translate(220,496)"/>
<path d="M0 0 C1.92241345 7.10108374 0.50814147 16.10965629 -2 23 C-3.5703125 24.75390625 -3.5703125 24.75390625 -5 26 C-4.35215814 20.05349367 -3.28016565 14.32612517 -1.9375 8.5 C-1.75123047 7.67757813 -1.56496094 6.85515625 -1.37304688 6.0078125 C-0.91879115 4.0044283 -0.45988401 2.0020997 0 0 Z " fill="#4BB3D4" transform="translate(491,386)"/>
<path d="M0 0 C2.64 0.33 5.28 0.66 8 1 C6.02 1.99 6.02 1.99 4 3 C4 3.66 4 4.32 4 5 C-0.625 7.125 -0.625 7.125 -4 6 C-3.34 4.68 -2.68 3.36 -2 2 C-1.34 2 -0.68 2 0 2 C0 1.34 0 0.68 0 0 Z " fill="#39B6E2" transform="translate(460,322)"/>
<path d="M0 0 C0 1.32 0 2.64 0 4 C0.66 4.33 1.32 4.66 2 5 C1.34 5 0.68 5 0 5 C0.66 5.66 1.32 6.32 2 7 C1.625 9.625 1.625 9.625 1 12 C-1 10 -1 10 -1.125 6.875 C-1.08375 5.92625 -1.0425 4.9775 -1 4 C-1.721875 3.855625 -2.44375 3.71125 -3.1875 3.5625 C-5.79166667 3.04166667 -8.39583333 2.52083333 -11 2 C-11 1.67 -11 1.34 -11 1 C-7.27569643 0.30710631 -3.78916254 -0.11144596 0 0 Z " fill="#34BAE7" transform="translate(504,313)"/>
<path d="M0 0 C1.9996441 0.03772913 4.00054061 0.04649906 6 0 C3.75043698 2.24956302 1.93676737 3.00510965 -1 4.1875 C-1.886875 4.55230469 -2.77375 4.91710937 -3.6875 5.29296875 C-6 6 -6 6 -8 5 C-7.625 2.5625 -7.625 2.5625 -7 0 C-4.29966295 -1.35016853 -2.93418878 -0.60017498 0 0 Z " fill="#0EA8CE" transform="translate(469,593)"/>
<path d="M0 0 C0.66 0 1.32 0 2 0 C2.33 0.99 2.66 1.98 3 3 C3.33 2.01 3.66 1.02 4 0 C5.65 0 7.3 0 9 0 C8.67 1.65 8.34 3.3 8 5 C5.36 5.66 2.72 6.32 0 7 C0 4.69 0 2.38 0 0 Z " fill="#10A8D4" transform="translate(480,584)"/>
<path d="M0 0 C3.91593446 0.78318689 7.36406635 2.39179858 11 4 C10.01 5.485 10.01 5.485 9 7 C6.8359375 7.29296875 6.8359375 7.29296875 4.375 7.1875 C3.55773437 7.16042969 2.74046875 7.13335937 1.8984375 7.10546875 C0.95871094 7.05326172 0.95871094 7.05326172 0 7 C0 5 0 5 1.5 3.375 C1.995 2.92125 2.49 2.4675 3 2 C2.01 1.67 1.02 1.34 0 1 C0 0.67 0 0.34 0 0 Z " fill="#3EBDED" transform="translate(480,209)"/>
<path d="M0 0 C-3.44069624 2.29379749 -4.72290301 3 -9 3 C-9.66 4.32 -10.32 5.64 -11 7 C-13.64 6.67 -16.28 6.34 -19 6 C-16.07326863 4.04884575 -13.2870104 2.70354342 -10.0625 1.3125 C-9.02222656 0.85488281 -7.98195313 0.39726562 -6.91015625 -0.07421875 C-3.97978311 -1.00643141 -2.80276633 -1.11435288 0 0 Z " fill="#CCF5FB" transform="translate(320,384)"/>
<path d="M0 0 C2.7972908 2.06756277 3.02692273 3.14440371 3.6875 6.6875 C3.790625 7.780625 3.89375 8.87375 4 10 C-0.875 9.125 -0.875 9.125 -2 8 C-2.29386153 4.27775401 -2.14809171 3.22213757 0 0 Z " fill="#41BBEB" transform="translate(578,294)"/>
<path d="M0 0 C2.625 0.9375 2.625 0.9375 5 2 C4.67 3.65 4.34 5.3 4 7 C1.69 6.34 -0.62 5.68 -3 5 C-3.33 5.66 -3.66 6.32 -4 7 C-4.33 6.01 -4.66 5.02 -5 4 C-3.36587557 2.29159719 -2.13093906 1.06546953 0 0 Z " fill="#30B0D4" transform="translate(233,273)"/>
<path d="M0 0 C0.66 0.33 1.32 0.66 2 1 C-3.03685977 5.0723547 -7.44710503 7.49127248 -14 8 C-16.26953125 7.5390625 -16.26953125 7.5390625 -18 7 C-17.28714844 6.74605469 -16.57429688 6.49210937 -15.83984375 6.23046875 C-9.3160421 3.89000079 -9.3160421 3.89000079 -2.9375 1.1875 C-1.968125 0.795625 -0.99875 0.40375 0 0 Z " fill="#C4F0F9" transform="translate(443,334)"/>
<path d="M0 0 C0.28875 0.61875 0.5775 1.2375 0.875 1.875 C1.93720042 4.13325765 1.93720042 4.13325765 4 6 C4.4140625 8.8203125 4.4140625 8.8203125 4.625 12.125 C4.69976562 13.22070312 4.77453125 14.31640625 4.8515625 15.4453125 C4.90054688 16.28835938 4.94953125 17.13140625 5 18 C1.19757431 12.29636147 -0.53968196 7.78969112 -1 1 C-0.67 0.67 -0.34 0.34 0 0 Z " fill="#0A96C1" transform="translate(195,443)"/>
<path d="M0 0 C1.918125 0.433125 1.918125 0.433125 3.875 0.875 C4.95394531 1.11863281 4.95394531 1.11863281 6.0546875 1.3671875 C8 2 8 2 10 4 C8.72125 3.95875 7.4425 3.9175 6.125 3.875 C3.98128508 3.75787127 3.98128508 3.75787127 2 4 C1.34 4.66 0.68 5.32 0 6 C-1.32 6 -2.64 6 -4 6 C-3.67 4.68 -3.34 3.36 -3 2 C-2.01 2 -1.02 2 0 2 C0 1.34 0 0.68 0 0 Z " fill="#2AACCC" transform="translate(308,420)"/>
<path d="M0 0 C-3.098534 1.20258256 -6.20458066 2.38440783 -9.3125 3.5625 C-10.19357422 3.90474609 -11.07464844 4.24699219 -11.98242188 4.59960938 C-12.82998047 4.91865234 -13.67753906 5.23769531 -14.55078125 5.56640625 C-15.33106689 5.86490479 -16.11135254 6.16340332 -16.9152832 6.47094727 C-19 7 -19 7 -22 6 C-18.05360978 2.29278494 -15.31965235 1.55996341 -10 1 C-8.948125 0.62875 -7.89625 0.2575 -6.8125 -0.125 C-3.83654078 -1.05085398 -2.87096295 -0.87296946 0 0 Z " fill="#44B0D1" transform="translate(416,346)"/>
<path d="M0 0 C-16.66666667 9 -16.66666667 9 -24 9 C-24 8.34 -24 7.68 -24 7 C-20.56835801 5.63064072 -17.12888119 4.28217537 -13.6875 2.9375 C-12.71103516 2.54755859 -11.73457031 2.15761719 -10.72851562 1.75585938 C-9.79072266 1.39169922 -8.85292969 1.02753906 -7.88671875 0.65234375 C-6.59060669 0.14175415 -6.59060669 0.14175415 -5.26831055 -0.37915039 C-3 -1 -3 -1 0 0 Z " fill="#45B1CF" transform="translate(440,336)"/>
<path d="M0 0 C1.32 0 2.64 0 4 0 C4 0.66 4 1.32 4 2 C7.99957607 4.06874624 10.56440517 5.37656391 15 4 C14.67 5.65 14.34 7.3 14 9 C10.26234143 8.37123501 7.80966403 6.6829182 4.75 4.5 C3.85796875 3.8709375 2.9659375 3.241875 2.046875 2.59375 C1.37140625 2.0678125 0.6959375 1.541875 0 1 C0 0.67 0 0.34 0 0 Z " fill="#13A5CC" transform="translate(273,565)"/>
<path d="M0 0 C0.70125 0.433125 1.4025 0.86625 2.125 1.3125 C8.09386517 4.81596434 12.06101729 6.78554521 19 6 C19 6.66 19 7.32 19 8 C19.66 8.33 20.32 8.66 21 9 C19.02 9.99 19.02 9.99 17 11 C17 10.01 17 9.02 17 8 C15.865625 8.12375 14.73125 8.2475 13.5625 8.375 C8.07157009 8.41429109 4.00244151 5.57625561 0 2 C0 1.34 0 0.68 0 0 Z " fill="#27A3C5" transform="translate(443,501)"/>
<path d="M0 0 C4.75 0.75 4.75 0.75 7 3 C2.25 7.875 2.25 7.875 0 9 C-1.125 3.375 -1.125 3.375 0 0 Z " fill="#A8D4E9" transform="translate(390,464)"/>
<path d="M0 0 C0.33 0.66 0.66 1.32 1 2 C1.66 1.34 2.32 0.68 3 0 C5.625 0.375 5.625 0.375 8 1 C8.33 2.32 8.66 3.64 9 5 C8.34 4.67 7.68 4.34 7 4 C6.67 4.33 6.34 4.66 6 5 C5.01 5.33 4.02 5.66 3 6 C0.8125 4.5625 0.8125 4.5625 -1 3 C-0.67 2.01 -0.34 1.02 0 0 Z " fill="#1EA7D2" transform="translate(273,410)"/>
<path d="M0 0 C0.94875 0.350625 1.8975 0.70125 2.875 1.0625 C7.64652464 2.46358424 12.1545323 1.72145797 17 1 C14.82309041 3.67927334 13.63885629 4.88642555 10.1875 5.5 C6.02720127 4.84740412 3.53705978 3.26371826 0 1 C0 0.67 0 0.34 0 0 Z " fill="#CBF4FB" transform="translate(447,503)"/>
<path d="M0 0 C0.33 0.66 0.66 1.32 1 2 C2.98 2 4.96 2 7 2 C7.33 2.66 7.66 3.32 8 4 C3.05 5.485 3.05 5.485 -2 7 C-2.33 5.35 -2.66 3.7 -3 2 C-2.01 2 -1.02 2 0 2 C0 1.34 0 0.68 0 0 Z " fill="#2CB8E2" transform="translate(419,336)"/>
<path d="M0 0 C-0.33 0.99 -0.66 1.98 -1 3 C-3.28515625 3.94921875 -3.28515625 3.94921875 -6.0625 4.6875 C-7.44115234 5.06455078 -7.44115234 5.06455078 -8.84765625 5.44921875 C-9.55792969 5.63097656 -10.26820313 5.81273437 -11 6 C-11.33 5.01 -11.66 4.02 -12 3 C-7.87960164 0.25306776 -4.92304458 0 0 0 Z " fill="#30B9E3" transform="translate(452,328)"/>
<path d="M0 0 C0 3 0 3 -1 5 C-1 6.32 -1 7.64 -1 9 C-1.99 9.33 -2.98 9.66 -4 10 C-4.99 9.34 -5.98 8.68 -7 8 C-7.99 8.495 -7.99 8.495 -9 9 C-7.25 4.125 -7.25 4.125 -5 3 C-5 3.66 -5 4.32 -5 5 C-4.34 5.33 -3.68 5.66 -3 6 C-2.814375 5.071875 -2.814375 5.071875 -2.625 4.125 C-2 2 -2 2 0 0 Z " fill="#2CB7E0" transform="translate(240,266)"/>
<path d="M0 0 C0 0.99 0 1.98 0 3 C-1.11375 3.12375 -2.2275 3.2475 -3.375 3.375 C-7.03103677 3.6465813 -7.03103677 3.6465813 -9 6 C-11.625 5.625 -11.625 5.625 -14 5 C-9.55595403 1.37892551 -5.78565632 -0.33060893 0 0 Z " fill="#3FBBE8" transform="translate(341,201)"/>
<path d="M0 0 C0.2475 0.61875 0.495 1.2375 0.75 1.875 C2.20628639 4.35068687 3.37812506 4.95125002 6 6 C6 6.99 6 7.98 6 9 C6.94978897 11.15028304 6.94978897 11.15028304 8 13 C5.95880212 11.38405168 3.95927063 9.7143618 2 8 C2 7.34 2 6.68 2 6 C1.34 6 0.68 6 0 6 C0 5.34 0 4.68 0 4 C-0.99 3.67 -1.98 3.34 -3 3 C-2 1 -2 1 0 0 Z " fill="#13A3CE" transform="translate(251,541)"/>
<path d="M0 0 C0.33 0 0.66 0 1 0 C1.02708567 1.60407328 1.04643483 3.2082785 1.0625 4.8125 C1.07410156 5.70582031 1.08570313 6.59914063 1.09765625 7.51953125 C1 10 1 10 0 13 C-1.65 13.33 -3.3 13.66 -5 14 C-4.70351563 13.44828125 -4.40703125 12.8965625 -4.1015625 12.328125 C-2.92371196 9.83876712 -2.14034283 7.3939116 -1.375 4.75 C-1.11460937 3.85796875 -0.85421875 2.9659375 -0.5859375 2.046875 C-0.39257812 1.37140625 -0.19921875 0.6959375 0 0 Z " fill="#30AEC8" transform="translate(468,493)"/>
<path d="M0 0 C0.33 0.66 0.66 1.32 1 2 C1.99 2 2.98 2 4 2 C4 2.66 4 3.32 4 4 C-2.4 7.07692308 -2.4 7.07692308 -5.4375 6.6875 C-5.953125 6.460625 -6.46875 6.23375 -7 6 C-7 5.34 -7 4.68 -7 4 C-6.030625 3.71125 -5.06125 3.4225 -4.0625 3.125 C-0.89335797 2.35785318 -0.89335797 2.35785318 0 0 Z " fill="#30B5E4" transform="translate(407,342)"/>
<path d="M0 0 C0 1.65 0 3.3 0 5 C-0.99 5 -1.98 5 -3 5 C-3.33 3.68 -3.66 2.36 -4 1 C-2 0 -2 0 0 0 Z M-5 2 C-4.67 3.32 -4.34 4.64 -4 6 C-5.32 6.33 -6.64 6.66 -8 7 C-8.33 5.68 -8.66 4.36 -9 3 C-7.68 2.67 -6.36 2.34 -5 2 Z " fill="#3ABCE7" transform="translate(320,208)"/>
<path d="M0 0 C1.84006479 2.70009507 2.01314295 3.89235923 1.609375 7.19921875 C1.32578125 8.35035156 1.0421875 9.50148438 0.75 10.6875 C0.47671875 11.84636719 0.2034375 13.00523437 -0.078125 14.19921875 C-0.38234375 15.12347656 -0.6865625 16.04773438 -1 17 C-1.66 17.33 -2.32 17.66 -3 18 C-2.41509121 11.85845775 -1.45933748 5.99320151 0 0 Z " fill="#57BADA" transform="translate(497,356)"/>
<path d="M0 0 C-5.86050397 4.43630328 -10.67568804 5.8349028 -18 6 C-14.87754953 3.91836635 -11.92965119 2.67424387 -8.4375 1.3125 C-7.28121094 0.85488281 -6.12492187 0.39726562 -4.93359375 -0.07421875 C-2 -1 -2 -1 0 0 Z " fill="#CBF4FB" transform="translate(381,360)"/>
<path d="M0 0 C2.2421875 0.171875 2.2421875 0.171875 4.875 0.75 C6.17050781 1.02070313 6.17050781 1.02070313 7.4921875 1.296875 C9.86497785 1.96214332 11.84556125 2.81756385 14 4 C14 4.66 14 5.32 14 6 C8.34979382 5.39891424 3.33835539 3.92471317 -2 2 C-1.34 1.34 -0.68 0.68 0 0 Z " fill="#C9F0FA" transform="translate(318,421)"/>
<path d="M0 0 C1.98 0.66 3.96 1.32 6 2 C5.34 3.32 4.68 4.64 4 6 C4 5.34 4 4.68 4 4 C3.34 4 2.68 4 2 4 C1.67 4.99 1.34 5.98 1 7 C0.01 7.33 -0.98 7.66 -2 8 C-2 6.68 -2 5.36 -2 4 C-1.34 4 -0.68 4 0 4 C0 2.68 0 1.36 0 0 Z " fill="#30B9E5" transform="translate(502,348)"/>
<path d="M0 0 C2.05078125 0.03255208 4.1015625 0.06510417 6.15234375 0.09765625 C3.34430107 3.0617013 0.96918601 5.54264644 -2.84765625 7.09765625 C-2.89019981 5.09810879 -2.88846408 3.09723989 -2.84765625 1.09765625 C-1.84765625 0.09765625 -1.84765625 0.09765625 0 0 Z " fill="#12A5CF" transform="translate(514.84765625,567.90234375)"/>
<path d="M0 0 C1.84036681 2.76055022 2.68344114 4.74598117 3.625 7.875 C3.88539063 8.71804688 4.14578125 9.56109375 4.4140625 10.4296875 C5.00963022 13.04224458 5.10525251 15.33041371 5 18 C1.25719605 14.25719605 0.71489248 10.96168476 0.375 5.75 C0.30023438 4.67234375 0.22546875 3.5946875 0.1484375 2.484375 C0.09945313 1.66453125 0.05046875 0.8446875 0 0 Z " fill="#32A5CA" transform="translate(344,459)"/>
<path d="M0 0 C4.95 0 9.9 0 15 0 C15 0.33 15 0.66 15 1 C12.25162151 1.53107314 9.50187625 2.05015881 6.75 2.5625 C5.97269531 2.71396484 5.19539063 2.86542969 4.39453125 3.02148438 C3.64042969 3.16005859 2.88632812 3.29863281 2.109375 3.44140625 C1.41811523 3.57232666 0.72685547 3.70324707 0.01464844 3.83813477 C-2.21287942 4.01710362 -3.87506962 3.65206197 -6 3 C-4.02 2.67 -2.04 2.34 0 2 C0 1.34 0 0.68 0 0 Z " fill="#42B1D5" transform="translate(359,193)"/>
<path d="M0 0 C0.33 0 0.66 0 1 0 C1.33 3.96 1.66 7.92 2 12 C1.34 12 0.68 12 0 12 C-1.95143115 9.13024831 -1.98930952 7.87385237 -1.6875 4.3125 C-1 1 -1 1 0 0 Z " fill="#BEE2F7" transform="translate(355,482)"/>
<path d="M0 0 C0.99 0.66 1.98 1.32 3 2 C1.37829621 3.00533667 -0.24747237 4.00411907 -1.875 5 C-3.23238281 5.8353125 -3.23238281 5.8353125 -4.6171875 6.6875 C-7 8 -7 8 -9 8 C-7.50164772 3.33845958 -4.11536409 2.13389249 0 0 Z " fill="#36ADD2" transform="translate(300,214)"/>
<path d="M0 0 C-0.33 0.99 -0.66 1.98 -1 3 C-6.94 3.33 -12.88 3.66 -19 4 C-15.48841924 1.65894616 -13.09894542 1.41723591 -8.9375 0.875 C-7.68839844 0.70742187 -6.43929688 0.53984375 -5.15234375 0.3671875 C-2 0 -2 0 0 0 Z " fill="#37B3DC" transform="translate(381,190)"/>
<path d="M0 0 C0 0.99 0 1.98 0 3 C-1.58086048 3.36504603 -3.16483907 3.71660506 -4.75 4.0625 C-5.63171875 4.25972656 -6.5134375 4.45695312 -7.421875 4.66015625 C-9.98679028 4.99825872 -11.57091639 4.81158635 -14 4 C-12.0429132 3.32968281 -10.08428887 2.66385317 -8.125 2 C-7.03445313 1.62875 -5.94390625 1.2575 -4.8203125 0.875 C-2 0 -2 0 0 0 Z " fill="#CDF4FA" transform="translate(356,369)"/>
<path d="M0 0 C0.66 0 1.32 0 2 0 C3.29243536 4.1196377 4.26252625 7.66831683 4 12 C2.5 10.8125 2.5 10.8125 1 9 C0.8125 6.3125 0.8125 6.3125 1 4 C0.34 4 -0.32 4 -1 4 C-0.67 2.68 -0.34 1.36 0 0 Z " fill="#39B9EA" transform="translate(599,348)"/>
<path d="M0 0 C1.9375 0.625 1.9375 0.625 4 2 C4.75 5.125 4.75 5.125 5 8 C2.13275314 7.42655063 1.1385485 7.1385485 -1 5 C-0.625 2.375 -0.625 2.375 0 0 Z " fill="#D9F7FA" transform="translate(276,402)"/>
<path d="M0 0 C1.953125 1.17578125 1.953125 1.17578125 4 3 C4.609375 5.48046875 4.609375 5.48046875 4.75 8.1875 C4.80671875 9.08855469 4.8634375 9.98960937 4.921875 10.91796875 C4.94765625 11.60503906 4.9734375 12.29210937 5 13 C3 12 3 12 2.1484375 10.0390625 C1.89320313 9.24242187 1.63796875 8.44578125 1.375 7.625 C1.11460937 6.83351563 0.85421875 6.04203125 0.5859375 5.2265625 C0 3 0 3 0 0 Z " fill="#33B2D6" transform="translate(593,323)"/>
<path d="M0 0 C0.66 0.33 1.32 0.66 2 1 C-0.875 7.75 -0.875 7.75 -2 10 C-2.66 10 -3.32 10 -4 10 C-3.38461538 3.47692308 -3.38461538 3.47692308 -1.4375 1.0625 C-0.7259375 0.5365625 -0.7259375 0.5365625 0 0 Z " fill="#42B9E9" transform="translate(588,310)"/>
<path d="M0 0 C1.9375 0.6875 1.9375 0.6875 4 2 C4.75 4.625 4.75 4.625 5 7 C3.35 7.33 1.7 7.66 0 8 C-0.38063221 5.6739143 -0.71269945 3.33944736 -1 1 C-0.67 0.67 -0.34 0.34 0 0 Z " fill="#3DBEE8" transform="translate(496,216)"/>
<path d="M0 0 C0.33 0.66 0.66 1.32 1 2 C1.66 2 2.32 2 3 2 C3 2.66 3 3.32 3 4 C-2.61 4 -8.22 4 -14 4 C-10.0553602 2.0276801 -7.34209671 1.39473606 -3 1 C-2.01 1.33 -1.02 1.66 0 2 C0 1.34 0 0.68 0 0 Z " fill="#0AA7CD" transform="translate(364,601)"/>
<path d="M0 0 C0.33 0.66 0.66 1.32 1 2 C2.11375 2.1546875 2.11375 2.1546875 3.25 2.3125 C6.99046837 3.24761709 8.56524306 5.07829168 11 8 C11 8.99 11 9.98 11 11 C7.04 8.03 3.08 5.06 -1 2 C-0.67 1.34 -0.34 0.68 0 0 Z " fill="#C2F1FA" transform="translate(430,489)"/>
<path d="M0 0 C1.32 0.66 2.64 1.32 4 2 C2.35 3.98 0.7 5.96 -1 8 C-1.66 6.68 -2.32 5.36 -3 4 C-2.01 2.68 -1.02 1.36 0 0 Z " fill="#A5D6E8" transform="translate(374,482)"/>
<path d="M0 0 C-0.99 0.33 -1.98 0.66 -3 1 C-3 1.66 -3 2.32 -3 3 C-5.31 4.32 -7.62 5.64 -10 7 C-9.02640613 3.72518425 -8.30933359 2.23794891 -5.5625 0.125 C-3 -1 -3 -1 0 0 Z " fill="#32AED4" transform="translate(284,227)"/>
<path d="M0 0 C3.35595828 0.59927826 5.37801226 1.84622436 8 4 C1.25 5.125 1.25 5.125 -1 4 C-0.67 2.68 -0.34 1.36 0 0 Z " fill="#18A7D8" transform="translate(443,504)"/>
<path d="M0 0 C0 0.66 0 1.32 0 2 C-3.06246747 3.78409802 -5.22079273 4.22880021 -8.75 4.125 C-9.54921875 4.10695313 -10.3484375 4.08890625 -11.171875 4.0703125 C-11.77515625 4.04710937 -12.3784375 4.02390625 -13 4 C-13.33 3.34 -13.66 2.68 -14 2 C-13.06027344 1.90912109 -13.06027344 1.90912109 -12.1015625 1.81640625 C-10.87566406 1.69072266 -10.87566406 1.69072266 -9.625 1.5625 C-8.81289063 1.48128906 -8.00078125 1.40007812 -7.1640625 1.31640625 C-4.39098241 0.91095591 -2.91201214 0 0 0 Z " fill="#9BD4F0" transform="translate(369,492)"/>
<path d="M0 0 C2.125 0.9375 2.125 0.9375 4 2 C1.3144406 4.6855594 -1.37621328 5.06049974 -5 6 C-2.25 1.125 -2.25 1.125 0 0 Z " fill="#28A5C9" transform="translate(396,467)"/>
<path d="M0 0 C2.97 0.495 2.97 0.495 6 1 C5.01 1.66 4.02 2.32 3 3 C3 3.99 3 4.98 3 6 C2.01 6.33 1.02 6.66 0 7 C-1.125 2.25 -1.125 2.25 0 0 Z " fill="#1AABD5" transform="translate(289,416)"/>
<path d="M0 0 C3.66881155 0.70554068 6.70450534 2.27735506 10 4 C6.67465243 5.10844919 4.37817425 4.84454356 1 4 C0.67 2.68 0.34 1.36 0 0 Z " fill="#0EADCD" transform="translate(530,552)"/>
<path d="M0 0 C3.03061766 2.02041177 3.72239767 2.75685563 5 6 C5 6.99 5 7.98 5 9 C2 8 2 8 0.25 5.0625 C-0.1625 4.051875 -0.575 3.04125 -1 2 C-0.67 1.34 -0.34 0.68 0 0 Z " fill="#099BC9" transform="translate(221,508)"/>
<path d="M0 0 C0.99 0.33 1.98 0.66 3 1 C3 1.66 3 2.32 3 3 C3.66 3 4.32 3 5 3 C5.33 4.98 5.66 6.96 6 9 C3 8 3 8 1.3125 5.0625 C0 2 0 2 0 0 Z " fill="#0C95BF" transform="translate(214,498)"/>
<path d="M0 0 C7.42857143 -0.28571429 7.42857143 -0.28571429 11 2 C8.64561267 3.42944945 7.51967567 4.08661261 4.75 3.625 C4.1725 3.41875 3.595 3.2125 3 3 C3 2.34 3 1.68 3 1 C2.01 0.67 1.02 0.34 0 0 Z " fill="#17ABDA" transform="translate(297,420)"/>
<path d="M0 0 C-1.28524261 0.86380259 -2.57842419 1.71580369 -3.875 2.5625 C-4.59429688 3.03816406 -5.31359375 3.51382813 -6.0546875 4.00390625 C-6.69664062 4.33261719 -7.33859375 4.66132812 -8 5 C-8.66 4.67 -9.32 4.34 -10 4 C-10 3.34 -10 2.68 -10 2 C-4.10714286 -1.34821429 -4.10714286 -1.34821429 0 0 Z " fill="#059ECA" transform="translate(520,573)"/>
<path d="M0 0 C0.66 0 1.32 0 2 0 C2 0.99 2 1.98 2 3 C1.34 3 0.68 3 0 3 C0 5.31 0 7.62 0 10 C-0.99 9.67 -1.98 9.34 -3 9 C-2.44271087 5.65626525 -1.64826111 2.96687001 0 0 Z " fill="#32BBE5" transform="translate(605,363)"/>
<path d="M0 0 C-0.969375 0.45375 -1.93875 0.9075 -2.9375 1.375 C-6.07079582 2.65786221 -6.07079582 2.65786221 -7 5 C-9.97 4.505 -9.97 4.505 -13 4 C-10.56272708 2.37515139 -8.62713877 1.34310925 -5.9375 0.3125 C-5.24527344 0.04050781 -4.55304688 -0.23148437 -3.83984375 -0.51171875 C-2 -1 -2 -1 0 0 Z " fill="#C8F3FC" transform="translate(485,320)"/>
<path d="M0 0 C2.96175123 0.61277612 4.38058783 1.25372522 7 3 C5.02 3.99 5.02 3.99 3 5 C2.01 4.34 1.02 3.68 0 3 C0 2.01 0 1.02 0 0 Z " fill="#17AAD5" transform="translate(416,484)"/>
<path d="M0 0 C2.0625 0.4375 2.0625 0.4375 4 1 C3.01 2.98 2.02 4.96 1 7 C0.34 7 -0.32 7 -1 7 C-1.04254356 5.00045254 -1.04080783 2.99958364 -1 1 C-0.67 0.67 -0.34 0.34 0 0 Z " fill="#14ABD4" transform="translate(399,473)"/>
<path d="M0 0 C-3 2 -3 2 -6 2 C-6 2.66 -6 3.32 -6 4 C-7.32 4.33 -8.64 4.66 -10 5 C-10 4.01 -10 3.02 -10 2 C-8.71211992 1.46987262 -7.41953322 0.9511671 -6.125 0.4375 C-5.40570313 0.14746094 -4.68640625 -0.14257812 -3.9453125 -0.44140625 C-2 -1 -2 -1 0 0 Z " fill="#C2ECFA" transform="translate(295,393)"/>
<path d="M0 0 C-3.72965139 2.03435531 -5.66905042 3 -10 3 C-10 2.01 -10 1.02 -10 0 C-3.375 -1.125 -3.375 -1.125 0 0 Z " fill="#32A8CE" transform="translate(326,380)"/>
<path d="M0 0 C2.72426311 2.35277269 3.8141763 4.62496331 5 8 C3.02 8 1.04 8 -1 8 C-0.34 7.67 0.32 7.34 1 7 C0.67 4.69 0.34 2.38 0 0 Z " fill="#41BCE7" transform="translate(569,280)"/>
<path d="M0 0 C1.65 0 3.3 0 5 0 C5 0.66 5 1.32 5 2 C4.34 2 3.68 2 3 2 C3 2.99 3 3.98 3 5 C1.35 5 -0.3 5 -2 5 C-1.34 3.35 -0.68 1.7 0 0 Z " fill="#38BCE7" transform="translate(445,195)"/>
<path d="M0 0 C2.875 0.3125 2.875 0.3125 6 1 C6.66 1.99 7.32 2.98 8 4 C5.36 3.67 2.72 3.34 0 3 C0 2.01 0 1.02 0 0 Z " fill="#49B2DD" transform="translate(438,193)"/>
<path d="M0 0 C2.9375 0.8125 2.9375 0.8125 6 2 C6.33 2.99 6.66 3.98 7 5 C6.01 5 5.02 5 4 5 C4 4.34 4 3.68 4 3 C2.68 3 1.36 3 0 3 C0 2.01 0 1.02 0 0 Z " fill="#16A6CC" transform="translate(368,602)"/>
<path d="M0 0 C4.31392226 0.4793247 6.16569547 1.7457985 9 5 C4.68607774 4.5206753 2.83430453 3.2542015 0 0 Z " fill="#0C96BC" transform="translate(270,565)"/>
<path d="M0 0 C0.77772405 2.33317216 1.42415568 4.61435923 2 7 C0.68 7 -0.64 7 -2 7 C-2.33 6.34 -2.66 5.68 -3 5 C-2.34 5 -1.68 5 -1 5 C-0.67 3.35 -0.34 1.7 0 0 Z " fill="#0EA9D0" transform="translate(263,549)"/>
<path d="M0 0 C2 2 2 2 2.125 5.125 C2.08375 6.07375 2.0425 7.0225 2 8 C0 6 -2 4 -4 2 C-3.34 1.67 -2.68 1.34 -2 1 C-1.34 1.33 -0.68 1.66 0 2 C0 1.34 0 0.68 0 0 Z " fill="#1AA3CA" transform="translate(349,478)"/>
<path d="M0 0 C0.66 0 1.32 0 2 0 C2.33 2.31 2.66 4.62 3 7 C1.68 7 0.36 7 -1 7 C-0.67 4.69 -0.34 2.38 0 0 Z " fill="#38C0E7" transform="translate(579,297)"/>
<path d="M0 0 C0 3.57575896 -1.08840607 5.05295935 -3 8 C-3.99 7.67 -4.98 7.34 -6 7 C-4.19587357 3.73539027 -3.16605307 2.11070205 0 0 Z " fill="#2AA6C7" transform="translate(240,264)"/>
<path d="M0 0 C0.33 0.66 0.66 1.32 1 2 C1.66 2 2.32 2 3 2 C6 5.46153846 6 5.46153846 6 8 C2.83884224 6.63016497 2.0072908 6.0109362 0 3 C0 2.01 0 1.02 0 0 Z " fill="#0C95B9" transform="translate(234,527)"/>
<path d="M0 0 C0 3.52032428 -0.70351351 4.4385343 -3 7 C-3.66 7 -4.32 7 -5 7 C-4.1875 4.0625 -4.1875 4.0625 -3 1 C-2.01 0.67 -1.02 0.34 0 0 Z " fill="#26A8D4" transform="translate(574,511)"/>
<path d="M0 0 C0.99 0 1.98 0 3 0 C3.66 1.65 4.32 3.3 5 5 C3.35 4.67 1.7 4.34 0 4 C0 2.68 0 1.36 0 0 Z " fill="#17A8D2" transform="translate(424,489)"/>
<path d="M0 0 C2.64 0 5.28 0 8 0 C8 0.66 8 1.32 8 2 C8.66 2.33 9.32 2.66 10 3 C2.25 2.25 2.25 2.25 0 0 Z " fill="#C7F2FA" transform="translate(300,417)"/>
<path d="M0 0 C-1 3 -1 3 -4.0625 4.6875 C-5.031875 5.120625 -6.00125 5.55375 -7 6 C-7.33 5.34 -7.66 4.68 -8 4 C-2.25 0 -2.25 0 0 0 Z " fill="#D9F7FC" transform="translate(300,390)"/>
<path d="M0 0 C2 2 2 2 2.125 5.625 C2.08375 6.73875 2.0425 7.8525 2 9 C0.4375 7.3125 0.4375 7.3125 -1 5 C-0.6875 2.25 -0.6875 2.25 0 0 Z " fill="#38AED5" transform="translate(599,337)"/>
<path d="M0 0 C1.98 0 3.96 0 6 0 C6 1.98 6 3.96 6 6 C3.97945196 4.35830472 1.97956942 2.69088222 0 1 C0 0.67 0 0.34 0 0 Z " fill="#56BCD8" transform="translate(497,317)"/>
<path d="M0 0 C2.475 0.99 2.475 0.99 5 2 C5 2.99 5 3.98 5 5 C4.01 5.33 3.02 5.66 2 6 C1.34 4.02 0.68 2.04 0 0 Z " fill="#3EBEE8" transform="translate(546,254)"/>
<path d="M0 0 C1.98 0.99 1.98 0.99 4 2 C3.67 4.31 3.34 6.62 3 9 C0.23776722 6.23776722 0.42143709 3.79293383 0 0 Z " fill="#0AA2CD" transform="translate(197,456)"/>
<path d="M0 0 C0.99 0 1.98 0 3 0 C2.67 2.97 2.34 5.94 2 9 C0.11656068 5.23312136 -0.22057835 3.97041037 0 0 Z " fill="#17ACD9" transform="translate(272,398)"/>
<path d="M0 0 C0.33 0 0.66 0 1 0 C1.33 3.3 1.66 6.6 2 10 C1.01 10.495 1.01 10.495 0 11 C-1.05404945 7.01803543 -0.84098656 4.01804691 0 0 Z " fill="#30AFD8" transform="translate(492,384)"/>
<path d="M0 0 C2.08954032 4.17908064 2.16552619 4.80410573 1 9 C0.01 9 -0.98 9 -2 9 C-1.34 6.03 -0.68 3.06 0 0 Z " fill="#1FA2D7" transform="translate(200,331)"/>
</svg>
